<svg width="24" height="24" viewBox="0 0 24 24" fill="none" xmlns="http://www.w3.org/2000/svg">
<path fill-rule="evenodd" clip-rule="evenodd" d="M10.5117 8.44156C10.8196 8.71865 10.8446 9.19287 10.5675 9.50075L10.5575 9.51186C10.2804 9.81975 9.80616 9.84471 9.49828 9.56761C9.1904 9.29052 9.16544 8.8163 9.44254 8.50842L9.45254 8.49731C9.72963 8.18942 10.2038 8.16447 10.5117 8.44156Z" fill="#33836E"/>
<path fill-rule="evenodd" clip-rule="evenodd" d="M14.5117 8.44156C14.8196 8.71865 14.8446 9.19287 14.5675 9.50075L14.5575 9.51186C14.2804 9.81975 13.8062 9.84471 13.4983 9.56761C13.1904 9.29052 13.1654 8.8163 13.4425 8.50842L13.4525 8.49731C13.7296 8.18942 14.2038 8.16447 14.5117 8.44156Z" fill="#33836E"/>
<path fill-rule="evenodd" clip-rule="evenodd" d="M10.5117 12.4416C10.8196 12.7187 10.8446 13.1929 10.5675 13.5008L10.5575 13.5119C10.2804 13.8197 9.80616 13.8447 9.49828 13.5676C9.1904 13.2905 9.16544 12.8163 9.44254 12.5084L9.45254 12.4973C9.72963 12.1894 10.2038 12.1645 10.5117 12.4416Z" fill="#33836E"/>
<path fill-rule="evenodd" clip-rule="evenodd" d="M14.5117 12.4416C14.8196 12.7187 14.8446 13.1929 14.5675 13.5008L14.5575 13.5119C14.2804 13.8197 13.8062 13.8447 13.4983 13.5676C13.1904 13.2905 13.1654 12.8163 13.4425 12.5084L13.4525 12.4973C13.7296 12.1894 14.2038 12.1645 14.5117 12.4416Z" fill="#33836E"/>
<path fill-rule="evenodd" clip-rule="evenodd" d="M10.5117 16.4416C10.8196 16.7187 10.8446 17.1929 10.5675 17.5008L10.5575 17.5119C10.2804 17.8197 9.80616 17.8447 9.49828 17.5676C9.1904 17.2905 9.16544 16.8163 9.44254 16.5084L9.45254 16.4973C9.72963 16.1894 10.2038 16.1645 10.5117 16.4416Z" fill="#33836E"/>
<path fill-rule="evenodd" clip-rule="evenodd" d="M14.5117 16.4416C14.8196 16.7187 14.8446 17.1929 14.5675 17.5008L14.5575 17.5119C14.2804 17.8197 13.8062 17.8447 13.4983 17.5676C13.1904 17.2905 13.1654 16.8163 13.4425 16.5084L13.4525 16.4973C13.7296 16.1894 14.2038 16.1645 14.5117 16.4416Z" fill="#33836E"/>
<path fill-rule="evenodd" clip-rule="evenodd" d="M18.75 20.4C18.75 21.1456 18.1456 21.75 17.4 21.75H6.6C5.85441 21.75 5.25 21.1456 5.25 20.4V5.6C5.25 4.85442 5.85441 4.25 6.6 4.25H11.25V3.6C11.25 2.85442 11.8544 2.25 12.6 2.25H17.4C18.1456 2.25 18.75 2.85442 18.75 3.6V20.4ZM17.25 20.25V3.75H12.75V5C12.75 5.41421 12.4142 5.75 12 5.75H6.75V20.25H17.25Z" fill="#33836E"/>
</svg>
