<svg width="24" height="25" viewBox="0 0 24 25" fill="none" xmlns="http://www.w3.org/2000/svg">
<path fill-rule="evenodd" clip-rule="evenodd" d="M12 12.9038C12.4142 12.9038 12.75 13.2396 12.75 13.6538V21.5C12.75 21.9142 12.4142 22.25 12 22.25C11.5858 22.25 11.25 21.9142 11.25 21.5V13.6538C11.25 13.2396 11.5858 12.9038 12 12.9038Z" fill="#33836E"/>
<path fill-rule="evenodd" clip-rule="evenodd" d="M9 7.63477C8.30964 7.63477 7.75 8.19441 7.75 8.88477V11.654C7.75 12.3444 8.30964 12.904 9 12.904H15C15.6904 12.904 16.25 12.3444 16.25 11.654V8.88477C16.25 8.19441 15.6904 7.63477 15 7.63477H9ZM6.25 8.88477C6.25 7.36598 7.48122 6.13477 9 6.13477H15C16.5188 6.13477 17.75 7.36598 17.75 8.88477V11.654C17.75 13.1728 16.5188 14.404 15 14.404H9C7.48122 14.404 6.25 13.1728 6.25 11.654V8.88477Z" fill="#33836E"/>
<path fill-rule="evenodd" clip-rule="evenodd" d="M15.3335 2.75C15.7477 2.75 16.0835 3.08579 16.0835 3.5V6.88462C16.0835 7.29883 15.7477 7.63462 15.3335 7.63462C14.9193 7.63462 14.5835 7.29883 14.5835 6.88462V3.5C14.5835 3.08579 14.9193 2.75 15.3335 2.75Z" fill="#33836E"/>
<path fill-rule="evenodd" clip-rule="evenodd" d="M8.6665 2.75C9.08072 2.75 9.4165 3.08579 9.4165 3.5V6.88462C9.4165 7.29883 9.08072 7.63462 8.6665 7.63462C8.25229 7.63462 7.9165 7.29883 7.9165 6.88462V3.5C7.9165 3.08579 8.25229 2.75 8.6665 2.75Z" fill="#33836E"/>
</svg>
