<svg width="24" height="24" viewBox="0 0 24 24" fill="none" xmlns="http://www.w3.org/2000/svg">
<path fill-rule="evenodd" clip-rule="evenodd" d="M4.33167 14.3404C4.45967 14.5918 4.71791 14.7501 5 14.7501H10.25V21.0001C10.25 21.3249 10.4591 21.6128 10.7681 21.7133C11.077 21.8137 11.4155 21.7039 11.6066 21.4412L19.6066 10.4412C19.7725 10.213 19.7963 9.9111 19.6683 9.65972C19.5403 9.40834 19.2821 9.25005 19 9.25005H13.75V3.00005C13.75 2.6752 13.5409 2.38727 13.2319 2.28681C12.923 2.18635 12.5845 2.2962 12.3935 2.55892L4.39345 13.5589C4.22753 13.7871 4.20366 14.089 4.33167 14.3404ZM12.25 5.30644V10.0001C12.25 10.4143 12.5858 10.7501 13 10.7501H17.5272L11.75 18.6937V14.0001C11.75 13.5858 11.4142 13.2501 11 13.2501H6.47283L12.25 5.30644Z" fill="#33836E"/>
</svg>
