<svg width="40" height="40" viewBox="0 0 40 40" fill="none" xmlns="http://www.w3.org/2000/svg">
<g clip-path="url(#clip0_1222_2171)">
<path d="M22.9122 32.1875V37.9607C22.9122 38.6123 22.3839 39.1406 21.7323 39.1406H18.2678C17.6162 39.1406 17.0879 38.6123 17.0879 37.9607V32.3234" stroke="#33836E" stroke-width="1.71875" stroke-miterlimit="10" stroke-linejoin="round"/>
<path d="M22.9121 26.5391H17.0879" stroke="#33836E" stroke-width="1.71875" stroke-miterlimit="10" stroke-linecap="round" stroke-linejoin="round"/>
<path d="M31.0904 27.6337C37.2153 21.5086 37.2151 11.5779 31.09 5.45301C24.9648 -0.671926 15.0342 -0.671755 8.90926 5.45339C2.78433 11.5785 2.7845 21.5092 8.90965 27.6341C15.0348 33.759 24.9654 33.7589 31.0904 27.6337Z" stroke="#33836E" stroke-width="1.71875" stroke-miterlimit="10" stroke-linecap="round" stroke-linejoin="round"/>
<path d="M20 6.42383V26.5412M20 6.42383L23.4618 10.3255M20 6.42383L16.5383 10.3255M27 20.6334L30.9017 17.1717L27 13.71" stroke="#33836E" stroke-width="1.71875" stroke-miterlimit="10" stroke-linecap="round" stroke-linejoin="round"/>
<path d="M30.9016 17.1719H22.946C21.319 17.1719 20 18.4909 20 20.1179" stroke="#33836E" stroke-width="1.71875" stroke-miterlimit="10" stroke-linecap="round" stroke-linejoin="round"/>
</g>
<defs>
<clipPath id="clip0_1222_2171">
<rect width="40" height="40" fill="white"/>
</clipPath>
</defs>
</svg>
