<svg width="40" height="40" viewBox="0 0 40 40" fill="none" xmlns="http://www.w3.org/2000/svg">
<path d="M3.32129 36.758V3.24203C3.32129 1.92609 4.38809 0.859375 5.70395 0.859375H36.6784V34.3753H5.70395C4.38809 34.3753 3.32129 35.4421 3.32129 36.758ZM3.32129 36.758C3.32129 38.0739 4.38801 39.1406 5.70395 39.1406H36.6784M34.2958 34.3753V39.1406M8.0866 0.859375V34.3753" stroke="#33836E" stroke-width="1.71875" stroke-miterlimit="10" stroke-linecap="round" stroke-linejoin="round"/>
<path d="M22.3827 10.4692V27.1479M12.8521 12.852H31.9133M17.6174 27.1479H27.148M15.2347 12.852L12.8521 17.6173C12.8521 18.9332 13.9188 19.9999 15.2347 19.9999C16.5506 19.9999 17.6174 18.9332 17.6174 17.6173L15.2347 12.852ZM29.5306 12.852L31.9133 17.6173C31.9133 18.9332 30.8466 19.9999 29.5306 19.9999C28.2147 19.9999 27.148 18.9332 27.148 17.6173L29.5306 12.852Z" stroke="#33836E" stroke-width="1.71875" stroke-miterlimit="10" stroke-linecap="round" stroke-linejoin="round"/>
</svg>
