<svg width="211" height="38" viewBox="0 0 211 38" fill="none" xmlns="http://www.w3.org/2000/svg">
<rect width="211" height="38" fill="#1E1E1E"/>
<rect width="1440" height="7202" transform="translate(-150 -47)" fill="white"/>
<g clip-path="url(#clip0_542_1253)">
<path d="M78.3011 10.8499H72.9991V1.18794C73.0042 0.948549 72.9636 0.774487 72.8824 0.676568C72.7961 0.578612 72.6436 0.52965 72.4202 0.535095H71.4145C71.1911 0.52965 71.0288 0.578612 70.9373 0.676568C70.8459 0.774487 70.8002 0.948549 70.8053 1.18794V23.0578C70.8002 23.2972 70.8459 23.4713 70.9373 23.5692C71.0288 23.6671 71.1911 23.716 71.4145 23.7106H72.4202C72.6436 23.716 72.7961 23.6671 72.8824 23.5692C72.9636 23.4713 73.0042 23.2972 72.9991 23.0578V13.0695H78.3011V16.0072C78.3062 17.7208 78.6211 19.1843 79.2559 20.4029C79.8904 21.6161 80.82 22.5464 82.049 23.1883C83.273 23.8357 84.7759 24.1622 86.5587 24.1676C88.3209 24.1622 89.8089 23.8357 91.0277 23.1883C92.2465 22.5464 93.1706 21.6161 93.8003 20.4029C94.4351 19.1843 94.75 17.7208 94.7551 16.0072V8.23849C94.75 6.5248 94.4351 5.0614 93.8003 3.8428C93.1706 2.62962 92.2465 1.69931 91.0277 1.05191C89.8089 0.409954 88.3209 0.0835689 86.5587 0.078125C84.7759 0.0835689 83.273 0.409954 82.049 1.05191C80.82 1.69931 79.8904 2.62962 79.2559 3.8428C78.6211 5.0614 78.3062 6.5248 78.3011 8.23849V10.8499ZM92.5614 16.0072C92.5614 17.2857 92.3277 18.3628 91.8655 19.255C91.4032 20.1418 90.7278 20.8164 89.8341 21.2788C88.9455 21.7467 87.8535 21.9752 86.5587 21.9806C85.2586 21.9752 84.1565 21.7467 83.2627 21.2788C82.3639 20.8164 81.6833 20.1418 81.2211 19.255C80.7589 18.3628 80.5256 17.2857 80.5256 16.0072V8.23849C80.5256 6.96008 80.7589 5.87745 81.2211 4.9907C81.6833 4.10391 82.3639 3.42931 83.2627 2.96145C84.1565 2.49904 85.2586 2.26513 86.5587 2.26513C87.8535 2.26513 88.9455 2.49904 89.8341 2.96145C90.7278 3.42931 91.4032 4.10391 91.8655 4.9907C92.3277 5.87745 92.5614 6.96008 92.5614 8.23849V16.0072ZM99.4783 0.535095C99.2545 0.52965 99.0921 0.578612 99.0007 0.676568C98.9093 0.774487 98.8636 0.948549 98.8687 1.18794V23.0578C98.8636 23.2972 98.9093 23.4713 99.0007 23.5692C99.0921 23.6671 99.2545 23.716 99.4783 23.7106H100.484C100.707 23.716 100.859 23.6671 100.946 23.5692C101.027 23.4713 101.068 23.2972 101.063 23.0578V14.9953H107.614C109.041 14.9898 110.27 14.7016 111.296 14.1303C112.321 13.5645 113.109 12.7431 113.662 11.6659C114.216 10.5942 114.495 9.29935 114.5 7.78154C114.495 6.2637 114.216 4.96348 113.662 3.88629C113.109 2.80912 112.321 1.98222 111.296 1.40555C110.27 0.828889 109.041 0.540539 107.614 0.535095H99.4783ZM101.063 12.8083V2.75472H107.431C108.421 2.76017 109.274 2.96145 109.985 3.35857C110.696 3.76118 111.25 4.33783 111.631 5.08314C112.017 5.83393 112.21 6.73157 112.215 7.78154C112.21 8.83151 112.017 9.72915 111.631 10.4799C111.25 11.2252 110.696 11.8019 109.985 12.199C109.274 12.6016 108.421 12.8029 107.431 12.8083H101.063ZM132.6 0.535095C132.463 0.535095 132.341 0.562316 132.234 0.611274C132.127 0.66568 132.036 0.747266 131.96 0.861518L123.184 14.5383C122.468 15.6645 121.828 16.7416 121.254 17.7644C120.686 18.7926 120.183 19.761 119.741 20.6749H119.65C119.772 19.5488 119.863 18.4009 119.924 17.2258C119.985 16.0562 120.015 14.8647 120.015 13.657V1.18794C120.02 0.948549 119.98 0.774487 119.898 0.676568C119.812 0.578612 119.66 0.52965 119.436 0.535095H118.431C118.208 0.52965 118.045 0.578612 117.953 0.676568C117.862 0.774487 117.816 0.948549 117.821 1.18794V23.0578C117.816 23.2972 117.862 23.4713 117.953 23.5692C118.045 23.6671 118.208 23.716 118.431 23.7106H119.436C119.573 23.7106 119.696 23.678 119.802 23.6181C119.909 23.5528 120 23.4658 120.076 23.3516L129.065 9.34831C129.781 8.1732 130.411 7.10149 130.959 6.13855C131.503 5.17562 131.96 4.32153 132.326 3.57078H132.386C132.249 4.72956 132.153 5.86112 132.087 6.97094C132.021 8.08072 131.99 9.1688 131.99 10.2297V23.0578C131.99 23.2972 132.031 23.4713 132.122 23.5692C132.219 23.6671 132.376 23.716 132.6 23.7106H133.605C133.828 23.716 133.991 23.6671 134.083 23.5692C134.174 23.4713 134.22 23.2972 134.215 23.0578V1.18794C134.22 0.948549 134.174 0.774487 134.083 0.676568C133.991 0.578612 133.828 0.52965 133.605 0.535095H132.6ZM138.328 15.9745C138.333 17.6882 138.658 19.1571 139.308 20.3757C139.958 21.5943 140.903 22.5301 142.142 23.1829C143.381 23.8303 144.894 24.1622 146.677 24.1676C148.206 24.1676 149.511 23.9554 150.598 23.5256C151.679 23.1013 152.568 22.4648 153.259 21.6215C153.955 20.7729 154.483 19.7174 154.843 18.4553C154.904 18.2595 154.904 18.0963 154.843 17.9602C154.782 17.8297 154.66 17.7208 154.478 17.6393L153.533 17.2476C153.35 17.1986 153.193 17.2095 153.055 17.2748C152.923 17.3455 152.817 17.4761 152.741 17.6719C152.462 18.662 152.07 19.4726 151.568 20.1091C151.065 20.7456 150.415 21.219 149.618 21.5236C148.82 21.8283 147.84 21.9806 146.677 21.9806C145.362 21.9752 144.255 21.7358 143.341 21.2679C142.432 20.7946 141.741 20.1146 141.269 19.2224C140.791 18.3356 140.557 17.2639 140.553 16.0072V8.23849C140.553 6.97094 140.786 5.89378 141.253 5.00699C141.721 4.1202 142.406 3.44019 143.315 2.97234C144.224 2.50448 145.346 2.26513 146.677 2.26513C147.82 2.25968 148.785 2.41201 149.572 2.71121C150.364 3.01041 151.009 3.47282 151.512 4.09306C152.01 4.71322 152.401 5.5075 152.68 6.47584C152.756 6.65539 152.858 6.77509 152.985 6.84038C153.111 6.90564 153.274 6.91653 153.472 6.86757L154.417 6.5085C154.64 6.43236 154.777 6.32895 154.828 6.20385C154.879 6.0787 154.863 5.89919 154.782 5.65983C154.422 4.40857 153.894 3.3695 153.203 2.54255C152.512 1.71565 151.629 1.10087 150.552 0.692861C149.475 0.279408 148.185 0.078125 146.677 0.078125C144.874 0.0835689 143.356 0.409954 142.117 1.0628C140.877 1.71564 139.933 2.65136 139.293 3.86999C138.653 5.08858 138.333 6.55747 138.328 8.27112V15.9745ZM156.976 0.535095C156.753 0.52965 156.59 0.578612 156.499 0.676568C156.407 0.774487 156.362 0.948549 156.367 1.18794V2.10192C156.362 2.34127 156.407 2.50993 156.499 2.61329C156.59 2.7112 156.753 2.75472 156.976 2.75472H163.131V23.0578C163.126 23.2972 163.172 23.4713 163.263 23.5692C163.355 23.6671 163.517 23.716 163.741 23.7106H164.746C164.97 23.716 165.132 23.6671 165.224 23.5692C165.315 23.4713 165.361 23.2972 165.356 23.0578V2.75472H171.511C171.734 2.75472 171.897 2.7112 171.988 2.61329C172.079 2.50993 172.125 2.34127 172.12 2.10192V1.18794C172.125 0.948549 172.079 0.774487 171.988 0.676568C171.897 0.578612 171.734 0.52965 171.511 0.535095H156.976ZM174.253 15.9745C174.258 17.6882 174.583 19.1571 175.228 20.3757C175.873 21.5943 176.818 22.5301 178.062 23.1829C179.306 23.8303 180.83 24.1622 182.632 24.1676C184.425 24.1622 185.939 23.8303 187.183 23.1829C188.422 22.5301 189.366 21.5943 190.012 20.3757C190.651 19.1571 190.976 17.6882 190.981 15.9745V8.27112C190.976 6.55747 190.651 5.08858 190.012 3.86999C189.366 2.65136 188.422 1.71564 187.183 1.0628C185.939 0.409954 184.425 0.0835689 182.632 0.078125C180.83 0.0835689 179.306 0.409954 178.062 1.0628C176.818 1.71564 175.873 2.65136 175.228 3.86999C174.583 5.08858 174.258 6.55747 174.253 8.27112V15.9745ZM188.788 15.9745C188.788 17.253 188.549 18.3356 188.081 19.2278C187.609 20.12 186.919 20.8055 186.005 21.2734C185.091 21.7412 183.963 21.9752 182.632 21.9806C181.302 21.9752 180.175 21.7412 179.255 21.2734C178.336 20.8055 177.64 20.12 177.163 19.2278C176.686 18.3356 176.447 17.253 176.447 15.9745V8.27112C176.447 6.99271 176.686 5.91011 177.163 5.01792C177.64 4.1202 178.336 3.44019 179.255 2.97234C180.175 2.50448 181.302 2.26513 182.632 2.26513C183.963 2.26513 185.091 2.50448 186.005 2.97234C186.919 3.44019 187.609 4.1202 188.081 5.01792C188.549 5.91011 188.788 6.99271 188.788 8.27112V15.9745ZM195.705 0.535095C195.481 0.52965 195.318 0.578612 195.227 0.676568C195.136 0.774487 195.09 0.948549 195.095 1.18794V23.0578C195.09 23.2972 195.136 23.4713 195.227 23.5692C195.318 23.6671 195.481 23.716 195.705 23.7106H204.632C205.927 23.7051 207.05 23.4604 207.989 22.9707C208.928 22.4811 209.655 21.7739 210.163 20.849C210.676 19.9187 210.935 18.798 210.94 17.4761C210.94 15.9093 210.635 14.6526 210.031 13.7006C209.421 12.754 208.517 12.1065 207.314 11.7638V11.6985C208.273 11.2578 208.989 10.5996 209.467 9.72371C209.939 8.84784 210.178 7.76521 210.178 6.47584C210.173 5.1974 209.944 4.1202 209.487 3.23891C209.03 2.3576 208.365 1.68302 207.487 1.22601C206.613 0.769043 205.551 0.535095 204.297 0.535095H195.705ZM207.923 6.76965C207.918 8.12424 207.588 9.14158 206.923 9.82707C206.257 10.5071 205.292 10.8499 204.023 10.8499H197.289V2.75472H204.023C205.318 2.75472 206.293 3.08659 206.943 3.75573C207.598 4.4249 207.923 5.43135 207.923 6.76965ZM207.588 20.4138C207.238 20.7729 206.806 21.0449 206.293 21.2244C205.78 21.404 205.196 21.491 204.541 21.491H197.289V12.9715H204.541C205.196 12.9715 205.78 13.0586 206.293 13.2381C206.806 13.4176 207.238 13.6897 207.588 14.0487C207.938 14.4241 208.197 14.8756 208.37 15.4034C208.543 15.931 208.624 16.5458 208.624 17.2476C208.624 17.9494 208.543 18.5641 208.37 19.0864C208.197 19.6141 207.938 20.0548 207.588 20.4138Z" fill="#140A32"/>
<path d="M78.3011 10.8499H72.9991V1.18794C73.0042 0.948549 72.9636 0.774487 72.8824 0.676568C72.7961 0.578612 72.6436 0.52965 72.4202 0.535095H71.4145C71.1911 0.52965 71.0288 0.578612 70.9373 0.676568C70.8459 0.774487 70.8002 0.948549 70.8053 1.18794V23.0578C70.8002 23.2972 70.8459 23.4713 70.9373 23.5692C71.0288 23.6671 71.1911 23.716 71.4145 23.7106H72.4202C72.6436 23.716 72.7961 23.6671 72.8824 23.5692C72.9636 23.4713 73.0042 23.2972 72.9991 23.0578V13.0695H78.3011V16.0072C78.3062 17.7208 78.6211 19.1843 79.2559 20.4029C79.8904 21.6161 80.82 22.5464 82.049 23.1883C83.273 23.8357 84.7759 24.1622 86.5587 24.1676C88.3209 24.1622 89.8089 23.8357 91.0277 23.1883C92.2465 22.5464 93.1706 21.6161 93.8003 20.4029C94.4351 19.1843 94.75 17.7208 94.7551 16.0072V8.23849C94.75 6.5248 94.4351 5.0614 93.8003 3.8428C93.1706 2.62962 92.2465 1.69931 91.0277 1.05191C89.8089 0.409954 88.3209 0.0835689 86.5587 0.078125C84.7759 0.0835689 83.273 0.409954 82.049 1.05191C80.82 1.69931 79.8904 2.62962 79.2559 3.8428C78.6211 5.0614 78.3062 6.5248 78.3011 8.23849V10.8499ZM92.5614 16.0072C92.5614 17.2857 92.3277 18.3628 91.8655 19.255C91.4032 20.1418 90.7278 20.8164 89.8341 21.2788C88.9455 21.7467 87.8535 21.9752 86.5587 21.9806C85.2586 21.9752 84.1565 21.7467 83.2627 21.2788C82.3639 20.8164 81.6833 20.1418 81.2211 19.255C80.7589 18.3628 80.5256 17.2857 80.5256 16.0072V8.23849C80.5256 6.96008 80.7589 5.87745 81.2211 4.9907C81.6833 4.10391 82.3639 3.42931 83.2627 2.96145C84.1565 2.49904 85.2586 2.26513 86.5587 2.26513C87.8535 2.26513 88.9455 2.49904 89.8341 2.96145C90.7278 3.42931 91.4032 4.10391 91.8655 4.9907C92.3277 5.87745 92.5614 6.96008 92.5614 8.23849V16.0072ZM99.4783 0.535095C99.2545 0.52965 99.0921 0.578612 99.0007 0.676568C98.9093 0.774487 98.8636 0.948549 98.8687 1.18794V23.0578C98.8636 23.2972 98.9093 23.4713 99.0007 23.5692C99.0921 23.6671 99.2545 23.716 99.4783 23.7106H100.484C100.707 23.716 100.859 23.6671 100.946 23.5692C101.027 23.4713 101.068 23.2972 101.062 23.0578V14.9953H107.614C109.041 14.9898 110.27 14.7016 111.296 14.1303C112.321 13.5645 113.109 12.7431 113.662 11.6659C114.216 10.5942 114.495 9.29935 114.5 7.78154C114.495 6.2637 114.216 4.96348 113.662 3.88629C113.109 2.80912 112.321 1.98222 111.296 1.40555C110.27 0.828889 109.041 0.540539 107.614 0.535095H99.4783ZM101.062 12.8083V2.75472H107.431C108.421 2.76017 109.274 2.96145 109.985 3.35857C110.696 3.76118 111.25 4.33783 111.631 5.08314C112.017 5.83393 112.21 6.73157 112.215 7.78154C112.21 8.83151 112.017 9.72915 111.631 10.4799C111.25 11.2252 110.696 11.8019 109.985 12.199C109.274 12.6016 108.421 12.8029 107.431 12.8083H101.062ZM132.6 0.535095C132.463 0.535095 132.341 0.562316 132.234 0.611274C132.127 0.665676 132.036 0.747266 131.96 0.861518L123.184 14.5383C122.468 15.6645 121.828 16.7416 121.254 17.7644C120.686 18.7926 120.183 19.761 119.741 20.6749H119.65C119.772 19.5488 119.863 18.4009 119.924 17.2258C119.985 16.0562 120.015 14.8647 120.015 13.657V1.18794C120.02 0.948549 119.98 0.774487 119.898 0.676568C119.812 0.578612 119.66 0.52965 119.436 0.535095H118.431C118.208 0.52965 118.045 0.578612 117.953 0.676568C117.862 0.774487 117.816 0.948549 117.821 1.18794V23.0578C117.816 23.2972 117.862 23.4713 117.953 23.5692C118.045 23.6671 118.208 23.716 118.431 23.7106H119.436C119.573 23.7106 119.696 23.678 119.802 23.6181C119.909 23.5528 120 23.4658 120.076 23.3516L129.065 9.34831C129.781 8.1732 130.411 7.10149 130.959 6.13855C131.503 5.17562 131.96 4.32153 132.326 3.57078H132.386C132.249 4.72956 132.153 5.86112 132.087 6.97094C132.021 8.08072 131.99 9.1688 131.99 10.2297V23.0578C131.99 23.2972 132.031 23.4713 132.122 23.5692C132.219 23.6671 132.376 23.716 132.6 23.7106H133.605C133.828 23.716 133.991 23.6671 134.083 23.5692C134.174 23.4713 134.22 23.2972 134.215 23.0578V1.18794C134.22 0.948549 134.174 0.774487 134.083 0.676568C133.991 0.578612 133.828 0.52965 133.605 0.535095H132.6ZM138.328 15.9745C138.333 17.6882 138.658 19.1571 139.308 20.3757C139.958 21.5943 140.903 22.5301 142.142 23.1829C143.381 23.8303 144.894 24.1622 146.677 24.1676C148.206 24.1676 149.511 23.9554 150.598 23.5256C151.679 23.1013 152.568 22.4648 153.259 21.6215C153.955 20.7729 154.483 19.7174 154.843 18.4553C154.904 18.2595 154.904 18.0963 154.843 17.9602C154.782 17.8297 154.66 17.7208 154.478 17.6393L153.533 17.2476C153.35 17.1986 153.193 17.2095 153.055 17.2748C152.923 17.3455 152.817 17.4761 152.741 17.6719C152.462 18.662 152.07 19.4726 151.567 20.1091C151.065 20.7456 150.415 21.219 149.618 21.5236C148.82 21.8283 147.84 21.9806 146.677 21.9806C145.362 21.9752 144.255 21.7358 143.341 21.2679C142.432 20.7946 141.741 20.1146 141.269 19.2224C140.791 18.3356 140.557 17.2639 140.553 16.0072V8.23849C140.553 6.97094 140.786 5.89378 141.253 5.00699C141.721 4.1202 142.406 3.44019 143.315 2.97234C144.224 2.50448 145.346 2.26513 146.677 2.26513C147.82 2.25968 148.785 2.41201 149.572 2.71121C150.364 3.01041 151.009 3.47282 151.512 4.09306C152.01 4.71322 152.401 5.5075 152.68 6.47584C152.756 6.65539 152.858 6.77509 152.985 6.84038C153.111 6.90564 153.274 6.91653 153.472 6.86757L154.417 6.5085C154.64 6.43236 154.777 6.32895 154.828 6.20385C154.879 6.0787 154.863 5.89919 154.782 5.65983C154.422 4.40857 153.894 3.3695 153.203 2.54255C152.512 1.71565 151.629 1.10087 150.552 0.692861C149.475 0.279408 148.185 0.078125 146.677 0.078125C144.874 0.0835689 143.356 0.409954 142.117 1.0628C140.877 1.71564 139.933 2.65136 139.293 3.86999C138.653 5.08858 138.333 6.55747 138.328 8.27112V15.9745ZM156.976 0.535095C156.753 0.52965 156.59 0.578612 156.499 0.676568C156.407 0.774487 156.362 0.948549 156.367 1.18794V2.10192C156.362 2.34127 156.407 2.50992 156.499 2.61329C156.59 2.7112 156.753 2.75472 156.976 2.75472H163.131V23.0578C163.126 23.2972 163.172 23.4713 163.263 23.5692C163.355 23.6671 163.517 23.716 163.741 23.7106H164.746C164.97 23.716 165.132 23.6671 165.224 23.5692C165.315 23.4713 165.361 23.2972 165.356 23.0578V2.75472H171.511C171.734 2.75472 171.897 2.7112 171.988 2.61329C172.079 2.50992 172.125 2.34127 172.12 2.10192V1.18794C172.125 0.948549 172.079 0.774487 171.988 0.676568C171.897 0.578612 171.734 0.52965 171.511 0.535095H156.976ZM174.253 15.9745C174.258 17.6882 174.583 19.1571 175.228 20.3757C175.873 21.5943 176.818 22.5301 178.062 23.1829C179.306 23.8303 180.83 24.1622 182.632 24.1676C184.425 24.1622 185.939 23.8303 187.183 23.1829C188.422 22.5301 189.366 21.5943 190.012 20.3757C190.651 19.1571 190.976 17.6882 190.981 15.9745V8.27112C190.976 6.55747 190.651 5.08858 190.012 3.86999C189.366 2.65136 188.422 1.71564 187.183 1.0628C185.939 0.409954 184.425 0.0835689 182.632 0.078125C180.83 0.0835689 179.306 0.409954 178.062 1.0628C176.818 1.71564 175.873 2.65136 175.228 3.86999C174.583 5.08858 174.258 6.55747 174.253 8.27112V15.9745ZM188.788 15.9745C188.788 17.253 188.549 18.3356 188.081 19.2278C187.609 20.12 186.919 20.8055 186.005 21.2734C185.091 21.7412 183.963 21.9752 182.632 21.9806C181.302 21.9752 180.175 21.7412 179.255 21.2734C178.336 20.8055 177.64 20.12 177.163 19.2278C176.686 18.3356 176.447 17.253 176.447 15.9745V8.27112C176.447 6.99271 176.686 5.91011 177.163 5.01792C177.64 4.1202 178.336 3.44019 179.255 2.97234C180.175 2.50448 181.302 2.26513 182.632 2.26513C183.963 2.26513 185.091 2.50448 186.005 2.97234C186.919 3.44019 187.609 4.1202 188.081 5.01792C188.549 5.91011 188.788 6.99271 188.788 8.27112V15.9745ZM195.705 0.535095C195.481 0.52965 195.318 0.578612 195.227 0.676568C195.136 0.774487 195.09 0.948549 195.095 1.18794V23.0578C195.09 23.2972 195.136 23.4713 195.227 23.5692C195.318 23.6671 195.481 23.716 195.705 23.7106H204.632C205.927 23.7051 207.05 23.4604 207.989 22.9707C208.928 22.4811 209.655 21.7739 210.163 20.849C210.676 19.9187 210.935 18.798 210.94 17.4761C210.94 15.9093 210.635 14.6526 210.031 13.7006C209.421 12.754 208.517 12.1065 207.314 11.7638V11.6985C208.273 11.2578 208.989 10.5996 209.467 9.72371C209.939 8.84784 210.178 7.76521 210.178 6.47584C210.173 5.1974 209.944 4.1202 209.487 3.23891C209.03 2.3576 208.365 1.68302 207.487 1.22601C206.613 0.769043 205.551 0.535095 204.297 0.535095H195.705ZM207.923 6.76965C207.918 8.12424 207.588 9.14158 206.923 9.82707C206.257 10.5071 205.292 10.8499 204.023 10.8499H197.289V2.75472H204.023C205.318 2.75472 206.293 3.08659 206.943 3.75573C207.598 4.4249 207.923 5.43135 207.923 6.76965ZM207.588 20.4138C207.238 20.7729 206.806 21.0449 206.293 21.2244C205.78 21.404 205.196 21.491 204.541 21.491H197.289V12.9715H204.541C205.196 12.9715 205.78 13.0586 206.293 13.2381C206.806 13.4176 207.238 13.6897 207.588 14.0487C207.938 14.4241 208.197 14.8756 208.37 15.4034C208.543 15.931 208.624 16.5458 208.624 17.2476C208.624 17.9494 208.543 18.5641 208.37 19.0864C208.197 19.6141 207.938 20.0548 207.588 20.4138Z" fill="#140A32"/>
<path d="M6.38751 31.0542H4.96167V28.6714C4.96379 28.5537 4.94272 28.4739 4.90067 28.4297C4.8565 28.3877 4.77663 28.3667 4.65888 28.3688H4.12889C4.01114 28.3667 3.9312 28.3877 3.88703 28.4297C3.84501 28.4739 3.82398 28.5537 3.82607 28.6714V34.5717C3.82607 34.7734 3.927 34.8743 4.12889 34.8743H4.65888C4.77663 34.8763 4.8565 34.8554 4.90067 34.8133C4.94272 34.7692 4.96379 34.6893 4.96167 34.5717V32.1006H6.38751V32.6679C6.38959 33.1701 6.49897 33.5988 6.71348 33.956C6.93007 34.3133 7.24343 34.5864 7.65563 34.7755C8.06567 34.9646 8.5641 35.0613 9.1508 35.0634C9.74175 35.0613 10.2423 34.9646 10.6565 34.7755C11.0687 34.5864 11.3842 34.3133 11.6008 33.956C11.8153 33.5988 11.9246 33.1701 11.9268 32.6679V30.5751C11.9246 30.0729 11.8153 29.6443 11.6008 29.287C11.3842 28.9298 11.0687 28.6567 10.6565 28.4675C10.2423 28.2763 9.74175 28.1818 9.1508 28.1797C8.5641 28.1818 8.06567 28.2763 7.65563 28.4675C7.24343 28.6567 6.93007 28.9298 6.71348 29.287C6.49897 29.6443 6.38959 30.0729 6.38751 30.5751V31.0542ZM10.7911 32.6679C10.7911 32.9537 10.7238 33.1996 10.5935 33.4055C10.4631 33.6093 10.2759 33.7669 10.0299 33.8762C9.78592 33.9854 9.4936 34.0422 9.1508 34.0422C8.81013 34.0422 8.51784 33.9854 8.27389 33.8762C8.03203 33.7669 7.84695 33.6093 7.71871 33.4055C7.58831 33.1996 7.52522 32.9537 7.5231 32.6679V30.5751C7.52522 30.2851 7.58831 30.0372 7.71871 29.8312C7.84695 29.6275 8.03203 29.4719 8.27389 29.3627C8.51784 29.2555 8.81013 29.2009 9.1508 29.2009C9.67655 29.203 10.0825 29.3228 10.3643 29.5623C10.646 29.7997 10.789 30.138 10.7911 30.5751V32.6679ZM13.769 28.5453C13.6365 28.5978 13.5335 28.6525 13.4619 28.7113C13.3904 28.7701 13.3421 28.8415 13.3147 28.9298C13.2874 29.016 13.2748 29.1273 13.2769 29.2639V37.3453C13.2748 37.4527 13.2979 37.5283 13.3421 37.5765C13.3862 37.6248 13.4619 37.6478 13.5671 37.6478H14.097C14.2148 37.65 14.2947 37.6292 14.3389 37.5871C14.3809 37.5429 14.402 37.4629 14.3999 37.3453V34.723C14.7279 34.8364 15.0287 34.9205 15.2999 34.9772C15.5733 35.034 15.8194 35.0634 16.0402 35.0634C17.8319 35.0634 18.7278 34.2061 18.7278 32.4914V30.7138C18.7278 29.8691 18.507 29.2345 18.0675 28.8121C17.6258 28.3898 16.9676 28.1797 16.0907 28.1797C15.6301 28.1797 15.2074 28.2112 14.8204 28.2721C14.4356 28.3352 14.0844 28.4255 13.769 28.5453ZM17.5922 32.4536C17.5922 32.9768 17.4576 33.3698 17.1842 33.6345C16.9108 33.8972 16.5007 34.0296 15.9519 34.0296C15.7499 34.0296 15.5207 34.0022 15.2621 33.9455C15.0013 33.8909 14.7153 33.8089 14.3999 33.7017V29.6674C14.3978 29.5938 14.4083 29.5392 14.4335 29.5014C14.4567 29.4635 14.5092 29.432 14.5891 29.4026C14.8036 29.3396 15.0223 29.2912 15.2431 29.2597C15.4661 29.2282 15.6932 29.2135 15.9266 29.2135C16.4818 29.2135 16.8982 29.3417 17.1758 29.6001C17.4534 29.8564 17.5922 30.241 17.5922 30.7516V32.4536ZM20.3933 28.3688C20.2756 28.3667 20.1957 28.3877 20.1515 28.4297C20.1095 28.4739 20.0884 28.5537 20.0905 28.6714V34.5717C20.0905 34.7734 20.1915 34.8743 20.3933 34.8743H20.9233C21.0495 34.8743 21.1504 34.8238 21.2261 34.723L23.939 31.029C24.0841 30.8209 24.2166 30.6213 24.3343 30.4301C24.4542 30.2389 24.5572 30.0519 24.6456 29.8691H24.6834C24.614 30.1969 24.5636 30.4995 24.5299 30.7789C24.4984 31.0563 24.4815 31.3126 24.4815 31.5459V34.5717C24.4795 34.6893 24.5005 34.7692 24.5425 34.8133C24.5867 34.8554 24.6666 34.8763 24.7844 34.8743H25.3143C25.4321 34.8763 25.512 34.8554 25.5562 34.8133C25.5982 34.7692 25.6193 34.6893 25.6172 34.5717V28.6714C25.6193 28.5537 25.5982 28.4739 25.5562 28.4297C25.512 28.3877 25.4321 28.3667 25.3143 28.3688H24.7844C24.7213 28.3688 24.6645 28.3814 24.6162 28.4066C24.5678 28.4318 24.5257 28.4697 24.4942 28.5201L21.7434 32.2519C21.4659 32.6175 21.2388 32.9958 21.0621 33.3866H21.0243C21.0937 33.1155 21.1441 32.8444 21.1778 32.5713C21.2093 32.3002 21.2261 32.025 21.2261 31.7476V28.6714C21.2283 28.5537 21.2072 28.4739 21.1652 28.4297C21.121 28.3877 21.0411 28.3667 20.9233 28.3688H20.3933ZM32.8725 33.8278V28.6714C32.8725 28.5537 32.8493 28.4739 32.801 28.4297C32.7526 28.3877 32.6769 28.3667 32.5696 28.3688H28.4057C28.2985 28.3667 28.2228 28.3877 28.1744 28.4297C28.126 28.4739 28.1029 28.5537 28.1029 28.6714V30.5751C28.1029 31.0983 28.0839 31.5459 28.0482 31.9199C28.0104 32.2918 27.9578 32.5923 27.8884 32.8192C27.8127 33.0525 27.7244 33.2521 27.6213 33.4181C27.5203 33.5841 27.4026 33.7207 27.2701 33.8278H26.9294C26.8243 33.8257 26.7486 33.8488 26.7044 33.8951C26.6603 33.9434 26.6371 34.0254 26.6392 34.1431V36.3241C26.6371 36.4313 26.6603 36.507 26.7044 36.5553C26.7486 36.6035 26.8243 36.6269 26.9294 36.6269H27.4215C27.5288 36.6269 27.6087 36.6013 27.6592 36.5509C27.7117 36.5007 27.737 36.425 27.737 36.3241V34.8743H32.721V36.3241C32.721 36.4313 32.7442 36.507 32.7925 36.5553C32.8409 36.6035 32.9187 36.6269 33.0239 36.6269H33.516C33.6338 36.6269 33.7137 36.6035 33.7578 36.5553C33.7999 36.507 33.8209 36.4313 33.8188 36.3241V34.1431C33.8209 34.0254 33.7999 33.9434 33.7578 33.8951C33.7137 33.8488 33.6338 33.8257 33.516 33.8278H32.8725ZM29.2006 29.4152H31.7368V33.8278H28.5698C28.778 33.5253 28.9357 33.1092 29.0408 32.5776C29.148 32.0481 29.2006 31.4009 29.2006 30.6382V29.4152ZM35.1184 28.3688C35.0006 28.3667 34.9207 28.3877 34.8766 28.4297C34.8345 28.4739 34.8135 28.5537 34.8156 28.6714V34.5717C34.8156 34.7734 34.9165 34.8743 35.1184 34.8743H35.6484C35.7746 34.8743 35.8755 34.8238 35.9512 34.723L38.6639 31.029C38.8091 30.8209 38.9415 30.6213 39.0596 30.4301C39.1792 30.2389 39.2823 30.0519 39.3708 29.8691H39.4085C39.339 30.1969 39.2885 30.4995 39.2549 30.7789C39.2234 31.0563 39.2066 31.3126 39.2066 31.5459V34.5717C39.2044 34.6893 39.2256 34.7692 39.2677 34.8133C39.3119 34.8554 39.3916 34.8763 39.5094 34.8743H40.0393C40.157 34.8763 40.2371 34.8554 40.2813 34.8133C40.3234 34.7692 40.3442 34.6893 40.3421 34.5717V28.6714C40.3442 28.5537 40.3234 28.4739 40.2813 28.4297C40.2371 28.3877 40.157 28.3667 40.0393 28.3688H39.5094C39.4465 28.3688 39.3894 28.3814 39.3412 28.4066C39.2929 28.4318 39.2509 28.4697 39.219 28.5201L36.4685 32.2519C36.1909 32.6175 35.9638 32.9958 35.7872 33.3866H35.7493C35.8187 33.1155 35.8692 32.8444 35.9028 32.5713C35.9344 32.3002 35.9512 32.025 35.9512 31.7476V28.6714C35.9533 28.5537 35.9323 28.4739 35.8902 28.4297C35.846 28.3877 35.7662 28.3667 35.6484 28.3688H35.1184ZM41.5283 30.1969C41.5261 30.9975 41.7324 31.5963 42.1507 31.9955C42.5694 32.3927 43.2149 32.5923 44.0896 32.5923C44.8341 32.5923 45.364 32.5293 45.6796 32.4032V34.5717C45.6796 34.6893 45.7026 34.7692 45.7513 34.8133C45.7995 34.8554 45.8752 34.8763 45.9824 34.8743H46.5122C46.6198 34.8763 46.6955 34.8554 46.7437 34.8133C46.792 34.7692 46.8154 34.6893 46.8154 34.5717V28.6714C46.8154 28.5537 46.792 28.4739 46.7437 28.4297C46.6955 28.3877 46.6198 28.3667 46.5122 28.3688H45.9824C45.8752 28.3667 45.7995 28.3877 45.7513 28.4297C45.7026 28.4739 45.6796 28.5537 45.6796 28.6714V31.3442C45.3011 31.4954 44.8217 31.5711 44.241 31.5711C43.1812 31.5711 42.6514 31.1046 42.6514 30.1717V28.6714C42.6535 28.5642 42.6301 28.4885 42.5863 28.4402C42.542 28.3919 42.4663 28.3688 42.361 28.3688H41.8311C41.7134 28.3667 41.6333 28.3877 41.5894 28.4297C41.5474 28.4739 41.5261 28.5537 41.5283 28.6714V30.1969ZM48.1527 32.441C48.1527 32.981 48.2558 33.4475 48.4617 33.8383C48.668 34.2292 48.977 34.5297 49.3913 34.7419C49.8078 34.9541 50.3271 35.0613 50.9539 35.0634C51.6099 35.0634 52.1654 34.9562 52.6174 34.7398C53.0715 34.5255 53.4208 34.1998 53.6669 33.7648C53.8055 33.5505 53.7678 33.3866 53.5531 33.2731L53.2123 33.0966C53.1074 33.0273 53.017 33.002 52.9432 33.021C52.8675 33.0399 52.794 33.1029 52.7205 33.2101C52.5501 33.5001 52.3168 33.7186 52.0242 33.8635C51.7298 34.0086 51.3766 34.08 50.9667 34.08C50.4156 34.0779 49.9969 33.9476 49.7091 33.6871C49.4227 33.4286 49.2779 33.0546 49.2757 32.5671V31.9619H53.3893C53.5469 31.9619 53.6647 31.9241 53.7404 31.8506C53.8183 31.7749 53.8559 31.6657 53.8559 31.5207V30.7894C53.8559 30.2641 53.7466 29.8081 53.5323 29.4173C53.3154 29.0286 52.9958 28.7239 52.5731 28.5096C52.1504 28.2931 51.6267 28.1839 51.0043 28.1797C50.3859 28.1818 49.8645 28.2869 49.4396 28.497C49.0172 28.7092 48.6972 29.0139 48.4807 29.4152C48.2621 29.8165 48.1527 30.304 48.1527 30.8777V32.441ZM52.7329 31.092H49.2757V30.7264C49.2757 30.3923 49.343 30.1086 49.4732 29.8712C49.6059 29.6359 49.8016 29.4531 50.0579 29.3291C50.3146 29.203 50.6299 29.1378 51.0043 29.1378C51.5678 29.14 51.9968 29.2786 52.2893 29.5539C52.5837 29.827 52.7311 30.2179 52.7329 30.7264V31.092ZM54.9032 32.5167C54.9032 33.0567 55.0064 33.5148 55.2104 33.8951C55.4145 34.2733 55.7191 34.5612 56.1272 34.7608C56.5353 34.9604 57.044 35.0613 57.6539 35.0634C59.0797 35.0634 60.0009 34.4834 60.4174 33.3236C60.4551 33.2227 60.4551 33.1365 60.4192 33.0672C60.3816 32.9957 60.3099 32.939 60.2028 32.8949L59.761 32.7688C59.6454 32.7226 59.5551 32.7163 59.4941 32.7457C59.433 32.7772 59.3785 32.8507 59.3321 32.9705C59.2121 33.3362 59.0168 33.6114 58.7411 33.7942C58.4679 33.977 58.1147 34.0674 57.6792 34.0674C57.1409 34.0632 56.735 33.9329 56.4574 33.6723C56.1799 33.4118 56.0409 33.0441 56.0387 32.5671V30.6634C56.0409 30.1885 56.1799 29.8207 56.4574 29.5644C56.735 29.308 57.1409 29.1778 57.6792 29.1757C58.1147 29.1757 58.4679 29.2639 58.7411 29.4404C59.0124 29.6169 59.2059 29.8817 59.3196 30.2347C59.3639 30.3482 59.4206 30.4217 59.4919 30.4532C59.5613 30.4869 59.6476 30.4806 59.7486 30.4364L60.1903 30.2977C60.2975 30.2599 60.3669 30.2053 60.4006 30.136C60.432 30.0645 60.4298 29.9762 60.3922 29.8691C60.2155 29.308 59.9062 28.8857 59.4626 28.6041C59.0209 28.3205 58.4427 28.1797 57.7296 28.1797C57.1028 28.1818 56.5795 28.2826 56.1608 28.4802C55.7425 28.6798 55.4291 28.9676 55.2188 29.3459C55.0086 29.722 54.9032 30.178 54.9032 30.7138V32.5167ZM66.0069 32.2771C65.8745 32.0061 65.7231 31.7854 65.5549 31.6131C65.3845 31.4429 65.1995 31.319 64.9976 31.2433L67.0166 28.7218C67.1113 28.602 67.1427 28.5138 67.1113 28.4549C67.0794 28.3982 66.9847 28.3688 66.8271 28.3688H66.3477C66.2278 28.3667 66.1331 28.3709 66.0658 28.3793C65.9967 28.3877 65.9396 28.4087 65.8935 28.4423C65.8493 28.4739 65.8028 28.5264 65.7546 28.5958L63.8746 31.029H63.7609H62.7644V28.6714C62.7662 28.5537 62.7432 28.4739 62.6971 28.4297C62.6484 28.3877 62.5665 28.3667 62.4488 28.3688H61.9441C61.8264 28.3667 61.7441 28.3877 61.6958 28.4297C61.6498 28.4739 61.6264 28.5537 61.6286 28.6714V34.5591C61.6264 34.6767 61.6498 34.7587 61.6958 34.807C61.7441 34.8533 61.8264 34.8763 61.9441 34.8743H62.4488C62.5665 34.8763 62.6484 34.8533 62.6971 34.807C62.7432 34.7587 62.7662 34.6767 62.7644 34.5591V32.0754H63.9126C64.1079 32.0754 64.2761 32.0964 64.4173 32.1426C64.5581 32.1889 64.678 32.2624 64.7789 32.3654C64.8799 32.4662 64.9702 32.6007 65.0481 32.7688L65.9188 34.5969C65.9546 34.6747 65.9901 34.7356 66.0281 34.7755C66.0639 34.8154 66.1144 34.8427 66.1751 34.8554C66.2384 34.868 66.3247 34.8743 66.4358 34.8743H66.9281C67.0732 34.8743 67.1595 34.8469 67.1888 34.7923C67.2184 34.7356 67.1932 34.6452 67.1175 34.5213L66.0069 32.2771ZM68.5052 28.3688C68.3875 28.3667 68.3078 28.3877 68.2635 28.4297C68.2215 28.4739 68.2003 28.5537 68.2025 28.6714V34.5717C68.2025 34.7734 68.3034 34.8743 68.5052 34.8743H69.0355C69.1617 34.8743 69.2626 34.8238 69.3383 34.723L72.0509 31.029C72.1961 30.8209 72.3285 30.6213 72.4462 30.4301C72.5662 30.2389 72.6693 30.0519 72.7574 29.8691H72.7955C72.726 30.1969 72.6755 30.4995 72.6419 30.7789C72.6104 31.0563 72.5936 31.3126 72.5936 31.5459V34.5717C72.5914 34.6893 72.6126 34.7692 72.6547 34.8133C72.6986 34.8554 72.7786 34.8763 72.8964 34.8743H73.4263C73.544 34.8763 73.6241 34.8554 73.6684 34.8133C73.7104 34.7692 73.7313 34.6893 73.7291 34.5717V28.6714C73.7313 28.5537 73.7104 28.4739 73.6684 28.4297C73.6241 28.3877 73.544 28.3667 73.4263 28.3688H72.8964C72.8331 28.3688 72.7765 28.3814 72.7282 28.4066C72.6799 28.4318 72.6379 28.4697 72.606 28.5201L69.8554 32.2519C69.5778 32.6175 69.3507 32.9958 69.1741 33.3866H69.1364C69.2055 33.1155 69.256 32.8444 69.2896 32.5713C69.3215 32.3002 69.3383 32.025 69.3383 31.7476V28.6714C69.3401 28.5537 69.3193 28.4739 69.2772 28.4297C69.233 28.3877 69.1532 28.3667 69.0355 28.3688H68.5052ZM75.0667 32.441C75.0667 32.981 75.1699 33.4475 75.3757 33.8383C75.582 34.2292 75.891 34.5297 76.3053 34.7419C76.7218 34.9541 77.2411 35.0613 77.8679 35.0634C78.5239 35.0634 79.079 34.9562 79.5314 34.7398C79.9855 34.5255 80.3348 34.1998 80.5805 33.7648C80.7195 33.5505 80.6814 33.3866 80.4672 33.2731L80.1263 33.0966C80.0214 33.0273 79.9307 33.002 79.8572 33.021C79.7815 33.0399 79.708 33.1029 79.6345 33.2101C79.4641 33.5001 79.2304 33.7186 78.9382 33.8635C78.6439 34.0086 78.2906 34.08 77.8803 34.08C77.3296 34.0779 76.9109 33.9476 76.6227 33.6871C76.3368 33.4286 76.1916 33.0546 76.1898 32.5671V31.9619H80.303C80.4609 31.9619 80.5787 31.9241 80.6544 31.8506C80.7323 31.7749 80.77 31.6657 80.77 31.5207V30.7894C80.77 30.2641 80.6606 29.8081 80.446 29.4173C80.2295 29.0286 79.9099 28.7239 79.4871 28.5096C79.0644 28.2931 78.5407 28.1839 77.9183 28.1797C77.3 28.1818 76.7785 28.2869 76.3536 28.497C75.9308 28.7092 75.6112 29.0139 75.3948 29.4152C75.1761 29.8165 75.0667 30.304 75.0667 30.8777V32.441ZM79.6469 31.092H76.1898V30.7264C76.1898 30.3923 76.257 30.1086 76.3872 29.8712C76.52 29.6359 76.7152 29.4531 76.9719 29.3291C77.2287 29.203 77.5439 29.1378 77.9183 29.1378C78.4819 29.14 78.9108 29.2786 79.2034 29.5539C79.4977 29.827 79.6447 30.2179 79.6469 30.7264V31.092ZM89.2871 32.2771C89.1544 32.0061 89.003 31.7854 88.8348 31.6131C88.6647 31.4429 88.4793 31.319 88.2775 31.2433L90.2964 28.7218C90.3911 28.602 90.4226 28.5138 90.3911 28.4549C90.3597 28.3982 90.2649 28.3688 90.1073 28.3688H89.6276C89.508 28.3667 89.4133 28.3709 89.346 28.3793C89.2765 28.3877 89.2198 28.4087 89.1734 28.4423C89.1291 28.4739 89.0831 28.5264 89.0348 28.5958L87.1544 31.029H87.0411H86.0442V28.6714C86.0464 28.5537 86.023 28.4739 85.9769 28.4297C85.9287 28.3877 85.8464 28.3667 85.7286 28.3688H85.224C85.1062 28.3667 85.0243 28.3877 84.9761 28.4297C84.9296 28.4739 84.9066 28.5537 84.9088 28.6714V34.5591C84.9066 34.6767 84.9296 34.7587 84.9761 34.807C85.0243 34.8533 85.1062 34.8763 85.224 34.8743H85.7286C85.8464 34.8763 85.9287 34.8533 85.9769 34.807C86.023 34.7587 86.0464 34.6767 86.0442 34.5591V32.0754H87.1925C87.3881 32.0754 87.5563 32.0964 87.6971 32.1426C87.8379 32.1889 87.9578 32.2624 88.0588 32.3654C88.1597 32.4662 88.2504 32.6007 88.3279 32.7688L89.1986 34.5969C89.2345 34.6747 89.2703 34.7356 89.308 34.7755C89.3438 34.8154 89.3942 34.8427 89.4553 34.8554C89.5182 34.868 89.6045 34.8743 89.7161 34.8743H90.2083C90.3531 34.8743 90.4394 34.8469 90.469 34.7923C90.4983 34.7356 90.473 34.6452 90.3973 34.5213L89.2871 32.2771ZM91.2808 32.6553C91.2826 33.1575 91.3964 33.5883 91.6213 33.9455C91.8462 34.3048 92.168 34.5801 92.5889 34.7734C93.0094 34.9646 93.5163 35.0613 94.1072 35.0634C94.7106 35.0613 95.2236 34.9646 95.6442 34.7734C96.0669 34.5801 96.3887 34.3048 96.6118 33.9455C96.8326 33.5883 96.9438 33.1575 96.946 32.6553V30.6003C96.9438 30.0939 96.8326 29.6611 96.6118 29.2997C96.3887 28.9403 96.0669 28.663 95.6442 28.4717C95.2236 28.2784 94.7106 28.1818 94.1072 28.1797C93.5163 28.1818 93.0094 28.2784 92.5889 28.4717C92.168 28.663 91.8462 28.9403 91.6213 29.2997C91.3964 29.6611 91.2826 30.0939 91.2808 30.6003V32.6553ZM95.823 32.6553C95.823 32.9453 95.7535 33.1954 95.6171 33.4013C95.4803 33.6072 95.2847 33.7669 95.028 33.8762C94.7738 33.9854 94.4667 34.0422 94.1072 34.0422C93.7518 34.0422 93.449 33.9854 93.1945 33.8762C92.9399 33.7669 92.7465 33.6072 92.6097 33.4013C92.473 33.1954 92.4057 32.9453 92.4035 32.6553V30.5877C92.4057 30.2956 92.473 30.0477 92.6097 29.8417C92.7465 29.6337 92.9399 29.4761 93.1945 29.3669C93.449 29.2576 93.7518 29.2009 94.1072 29.2009C94.4667 29.2009 94.7738 29.2576 95.028 29.3669C95.2847 29.4761 95.4803 29.6337 95.6171 29.8417C95.7535 30.0477 95.823 30.2956 95.823 30.5877V32.6553ZM102.94 28.3688C102.832 28.3667 102.757 28.3877 102.708 28.4297C102.66 28.4739 102.637 28.5537 102.637 28.6714V31.029H99.4444V28.6714C99.4466 28.5537 99.4253 28.4739 99.3833 28.4297C99.3394 28.3877 99.2593 28.3667 99.1416 28.3688H98.6117C98.4939 28.3667 98.4139 28.3877 98.3696 28.4297C98.3279 28.4739 98.3067 28.5537 98.3089 28.6714V34.5717C98.3089 34.7734 98.4098 34.8743 98.6117 34.8743H99.1416C99.2593 34.8763 99.3394 34.8554 99.3833 34.8133C99.4253 34.7692 99.4466 34.6893 99.4444 34.5717V32.0754H102.637V34.5717C102.637 34.6893 102.66 34.7692 102.708 34.8133C102.757 34.8554 102.832 34.8763 102.94 34.8743H103.469C103.577 34.8763 103.652 34.8554 103.701 34.8133C103.749 34.7692 103.772 34.6893 103.772 34.5717V28.6714C103.772 28.5537 103.749 28.4739 103.701 28.4297C103.652 28.3877 103.577 28.3667 103.469 28.3688H102.94ZM105.122 32.5167C105.122 33.0567 105.225 33.5148 105.43 33.8951C105.634 34.2733 105.939 34.5612 106.346 34.7608C106.754 34.9604 107.263 35.0613 107.873 35.0634C109.299 35.0634 110.22 34.4834 110.636 33.3236C110.674 33.2227 110.674 33.1365 110.639 33.0672C110.601 32.9957 110.529 32.939 110.422 32.8949L109.98 32.7688C109.865 32.7226 109.774 32.7163 109.713 32.7457C109.652 32.7772 109.598 32.8507 109.552 32.9705C109.432 33.3362 109.236 33.6114 108.961 33.7942C108.687 33.977 108.334 34.0674 107.898 34.0674C107.36 34.0632 106.954 33.9329 106.677 33.6723C106.399 33.4118 106.26 33.0441 106.258 32.5671V30.6634C106.26 30.1885 106.399 29.8207 106.677 29.5644C106.954 29.308 107.36 29.1778 107.898 29.1757C108.334 29.1757 108.687 29.2639 108.961 29.4404C109.232 29.6169 109.425 29.8817 109.539 30.2347C109.583 30.3482 109.64 30.4217 109.711 30.4532C109.78 30.4869 109.867 30.4806 109.968 30.4364L110.409 30.2977C110.517 30.2599 110.586 30.2053 110.62 30.136C110.651 30.0645 110.649 29.9762 110.611 29.8691C110.435 29.308 110.125 28.8857 109.682 28.6041C109.24 28.3205 108.662 28.1797 107.949 28.1797C107.322 28.1818 106.799 28.2826 106.38 28.4802C105.962 28.6798 105.648 28.9676 105.438 29.3459C105.228 29.722 105.122 30.178 105.122 30.7138V32.5167ZM116.466 28.3688C116.359 28.3667 116.283 28.3877 116.235 28.4297C116.186 28.4739 116.163 28.5537 116.163 28.6714V33.5253C115.879 33.6135 115.602 33.6807 115.332 33.7249C115.061 33.769 114.801 33.79 114.548 33.79C114.018 33.79 113.62 33.6639 113.356 33.4139C113.091 33.1617 112.958 32.7877 112.958 32.2897V28.6714C112.96 28.5642 112.937 28.4885 112.893 28.4402C112.849 28.3919 112.773 28.3688 112.668 28.3688H112.138C112.02 28.3667 111.941 28.3877 111.896 28.4297C111.854 28.4739 111.833 28.5537 111.835 28.6714V32.3276C111.835 33.1597 112.05 33.7837 112.477 34.1998C112.906 34.6158 113.545 34.8238 114.396 34.8238C114.662 34.8238 114.941 34.8007 115.238 34.7566C115.532 34.7125 115.841 34.6473 116.163 34.5591V35.2399C116.163 35.7946 116.029 36.2107 115.757 36.4881C115.488 36.7654 115.084 36.9042 114.548 36.9042C114.188 36.9042 113.879 36.8348 113.619 36.6941C113.36 36.5553 113.147 36.3431 112.983 36.0594C112.935 35.9921 112.887 35.9438 112.842 35.9144C112.796 35.885 112.746 35.8745 112.691 35.8808C112.636 35.885 112.569 35.9081 112.491 35.9459L112.125 36.1476C112.018 36.2044 111.953 36.2716 111.93 36.3494C111.907 36.4271 111.93 36.5196 111.999 36.6269C112.245 37.0555 112.58 37.377 113.007 37.5912C113.431 37.8056 113.949 37.9127 114.561 37.9127C116.378 37.9127 117.286 37.0051 117.286 35.1894V28.6714C117.288 28.5537 117.267 28.4739 117.225 28.4297C117.181 28.3877 117.101 28.3667 116.983 28.3688H116.466ZM119.81 28.3688C119.692 28.3667 119.612 28.3877 119.568 28.4297C119.526 28.4739 119.505 28.5537 119.507 28.6714V30.6382C119.507 31.2938 119.475 31.8422 119.41 32.2834C119.343 32.7247 119.242 33.0588 119.103 33.2857C119.013 33.4349 118.931 33.5505 118.855 33.6345C118.779 33.7186 118.699 33.79 118.615 33.8446C118.531 33.8993 118.428 33.956 118.308 34.017C118.239 34.0611 118.194 34.1115 118.176 34.1704C118.157 34.2271 118.163 34.2943 118.194 34.37L118.46 34.8743C118.504 34.9562 118.554 35.0088 118.615 35.034C118.674 35.0592 118.743 35.0571 118.826 35.0256C118.996 34.9436 119.149 34.8575 119.286 34.7671C119.421 34.6747 119.549 34.5633 119.669 34.4309C119.791 34.2985 119.913 34.1325 120.037 33.9287C120.226 33.6261 120.367 33.2038 120.462 32.6658C120.556 32.1279 120.605 31.4766 120.605 30.7138V29.4152H123.04V34.5717C123.038 34.6893 123.059 34.7692 123.101 34.8133C123.145 34.8554 123.225 34.8763 123.343 34.8743H123.86C123.967 34.8763 124.043 34.8554 124.091 34.8133C124.14 34.7692 124.163 34.6893 124.163 34.5717V28.6714C124.163 28.5537 124.14 28.4739 124.091 28.4297C124.043 28.3877 123.967 28.3667 123.86 28.3688H119.81ZM126.775 30.3356V28.6714C126.777 28.5537 126.756 28.4739 126.714 28.4297C126.67 28.3877 126.59 28.3667 126.472 28.3688H125.942C125.824 28.3667 125.744 28.3877 125.7 28.4297C125.658 28.4739 125.637 28.5537 125.639 28.6714V34.5717C125.637 34.6893 125.658 34.7692 125.7 34.8133C125.744 34.8554 125.824 34.8763 125.942 34.8743H128.731C129.216 34.8722 129.633 34.7797 129.978 34.599C130.322 34.4183 130.588 34.1577 130.773 33.8173C130.958 33.477 131.05 33.0693 131.052 32.5923C131.05 32.1195 130.958 31.7161 130.773 31.3799C130.588 31.0437 130.322 30.7852 129.978 30.6066C129.633 30.428 129.216 30.3376 128.731 30.3356H126.775ZM126.775 33.8657V31.3568H128.592C128.993 31.361 129.305 31.4702 129.527 31.6866C129.75 31.9031 129.864 32.2036 129.866 32.5923C129.864 32.9937 129.75 33.3046 129.527 33.5274C129.305 33.7501 128.993 33.8615 128.592 33.8657H126.775ZM131.873 28.3688C131.754 28.3667 131.675 28.3877 131.63 28.4297C131.588 28.4739 131.568 28.5537 131.569 28.6714V29.1126C131.568 29.2198 131.588 29.2954 131.63 29.3438C131.675 29.3921 131.754 29.4152 131.873 29.4152H133.714V34.5717C133.713 34.6893 133.734 34.7692 133.776 34.8133C133.82 34.8554 133.9 34.8763 134.017 34.8743H134.548C134.652 34.8763 134.728 34.8554 134.772 34.8133C134.817 34.7692 134.84 34.6893 134.838 34.5717V29.4152H136.68C136.787 29.4152 136.863 29.3921 136.911 29.3438C136.96 29.2954 136.983 29.2198 136.983 29.1126V28.6714C136.983 28.5537 136.96 28.4739 136.911 28.4297C136.863 28.3877 136.787 28.3667 136.68 28.3688H131.873ZM137.815 29.5035C137.765 29.6043 137.752 29.6905 137.78 29.7598C137.805 29.8312 137.872 29.888 137.979 29.9321L138.371 30.1086C138.448 30.138 138.509 30.1527 138.551 30.1527C138.593 30.1527 138.631 30.138 138.665 30.1065C138.699 30.0729 138.739 30.0245 138.787 29.9573C138.945 29.6989 139.153 29.5056 139.414 29.3795C139.672 29.2513 139.986 29.1883 140.352 29.1883C140.72 29.1883 141.014 29.2471 141.235 29.3606C141.456 29.4761 141.613 29.6443 141.71 29.867C141.807 30.0918 141.855 30.365 141.853 30.6886V31.1677C141.601 31.1361 141.355 31.113 141.115 31.1004C140.875 31.0857 140.642 31.0794 140.415 31.0794C139.74 31.0773 139.197 31.1403 138.783 31.2685C138.369 31.3967 138.068 31.6047 137.879 31.8947C137.691 32.1868 137.599 32.5734 137.601 33.0588C137.601 33.4055 137.651 33.7059 137.75 33.9581C137.851 34.2103 137.998 34.4141 138.194 34.5717C138.389 34.7356 138.669 34.8575 139.033 34.9394C139.397 35.0214 139.84 35.0634 140.364 35.0634C140.837 35.0634 141.254 35.0361 141.615 34.9793C141.975 34.9247 142.282 34.8427 142.534 34.7356C142.652 34.6873 142.743 34.6347 142.81 34.5801C142.875 34.5255 142.921 34.454 142.949 34.3658C142.976 34.2775 142.989 34.1619 142.989 34.017V30.7264C142.991 30.199 142.907 29.7451 142.734 29.3648C142.562 28.9866 142.284 28.6945 141.901 28.4885C141.517 28.2847 141.01 28.1818 140.377 28.1797C139.752 28.1797 139.226 28.2889 138.798 28.5096C138.371 28.7302 138.042 29.0622 137.815 29.5035ZM141.853 33.6891C141.853 33.7585 141.839 33.8152 141.807 33.8615C141.775 33.9056 141.727 33.9413 141.664 33.9665C141.374 34.0674 140.907 34.1178 140.263 34.1178C139.874 34.1178 139.569 34.08 139.346 34.0022C139.123 33.9266 138.964 33.8089 138.871 33.6534C138.778 33.4959 138.734 33.2983 138.736 33.0588C138.734 32.8108 138.783 32.6091 138.882 32.4536C138.98 32.2981 139.142 32.1825 139.369 32.109C139.599 32.0355 139.904 31.9997 140.288 31.9997C140.472 31.9997 140.694 32.0082 140.957 32.0271C141.22 32.0439 141.519 32.0691 141.853 32.1006V33.6891ZM149.79 33.8278V28.6714C149.79 28.5537 149.767 28.4739 149.718 28.4297C149.67 28.3877 149.594 28.3667 149.487 28.3688H148.957C148.85 28.3667 148.774 28.3877 148.725 28.4297C148.677 28.4739 148.654 28.5537 148.654 28.6714V33.8278H145.588V28.6714C145.59 28.5537 145.569 28.4739 145.527 28.4297C145.483 28.3877 145.403 28.3667 145.285 28.3688H144.755C144.553 28.3688 144.452 28.4697 144.452 28.6714V34.5717C144.45 34.6893 144.471 34.7692 144.514 34.8133C144.557 34.8554 144.637 34.8763 144.755 34.8743H149.638V36.3241C149.638 36.4313 149.662 36.507 149.71 36.5553C149.758 36.6035 149.836 36.6269 149.941 36.6269H150.433C150.551 36.6269 150.631 36.6035 150.675 36.5553C150.717 36.507 150.738 36.4313 150.736 36.3241V34.1431C150.738 34.0254 150.717 33.9434 150.675 33.8951C150.631 33.8488 150.551 33.8257 150.433 33.8278H149.79Z" fill="#140A32"/>
<path d="M152.036 28.3686C151.918 28.3665 151.838 28.3875 151.794 28.4296C151.752 28.4737 151.731 28.5535 151.733 28.6712V34.5715C151.733 34.7732 151.834 34.8741 152.036 34.8741H152.565C152.692 34.8741 152.793 34.8237 152.868 34.7228L155.581 31.0288C155.726 30.8208 155.859 30.6211 155.977 30.43C156.097 30.2388 156.2 30.0517 156.288 29.8689H156.326C156.256 30.1967 156.206 30.4993 156.172 30.7787C156.141 31.0561 156.124 31.3125 156.124 31.5457V34.5715C156.122 34.6892 156.143 34.7691 156.185 34.8132C156.229 34.8552 156.309 34.8762 156.427 34.8741H156.957C157.074 34.8762 157.154 34.8552 157.198 34.8132C157.24 34.7691 157.262 34.6892 157.259 34.5715V28.6712C157.262 28.5535 157.24 28.4737 157.198 28.4296C157.154 28.3875 157.074 28.3665 156.957 28.3686H156.427C156.363 28.3686 156.307 28.3812 156.259 28.4065C156.21 28.4317 156.168 28.4695 156.136 28.5199L153.386 32.2517C153.108 32.6173 152.881 32.9956 152.704 33.3864H152.666C152.736 33.1154 152.786 32.8443 152.82 32.5711C152.851 32.3001 152.868 32.0248 152.868 31.7474V28.6712C152.87 28.5535 152.85 28.4737 152.808 28.4296C152.763 28.3875 152.683 28.3665 152.565 28.3686H152.036ZM159.127 28.3686C159.009 28.3665 158.929 28.3875 158.885 28.4296C158.843 28.4737 158.822 28.5535 158.824 28.6712V34.5715C158.824 34.7732 158.925 34.8741 159.127 34.8741H159.657C159.783 34.8741 159.884 34.8237 159.96 34.7228L162.673 31.0288C162.818 30.8208 162.95 30.6211 163.068 30.43C163.188 30.2388 163.291 30.0517 163.379 29.8689H163.417C163.348 30.1967 163.297 30.4993 163.264 30.7787C163.232 31.0561 163.215 31.3125 163.215 31.5457V34.5715C163.213 34.6892 163.234 34.7691 163.276 34.8132C163.32 34.8552 163.4 34.8762 163.518 34.8741H164.048C164.166 34.8762 164.245 34.8552 164.29 34.8132C164.332 34.7691 164.353 34.6892 164.351 34.5715V28.6712C164.353 28.5535 164.332 28.4737 164.29 28.4296C164.245 28.3875 164.166 28.3665 164.048 28.3686H163.518C163.455 28.3686 163.398 28.3812 163.35 28.4065C163.301 28.4317 163.259 28.4695 163.228 28.5199L160.477 32.2517C160.2 32.6173 159.972 32.9956 159.796 33.3864H159.758C159.827 33.1154 159.878 32.8443 159.911 32.5711C159.943 32.3001 159.96 32.0248 159.96 31.7474V28.6712C159.962 28.5535 159.941 28.4737 159.899 28.4296C159.855 28.3875 159.775 28.3665 159.657 28.3686H159.127ZM168.591 32.6552C168.592 33.1574 168.706 33.5881 168.931 33.9454C169.156 34.3047 169.478 34.5799 169.898 34.7732C170.319 34.9645 170.826 35.0611 171.417 35.0632C172.02 35.0611 172.533 34.9645 172.954 34.7732C173.377 34.5799 173.698 34.3047 173.921 33.9454C174.142 33.5881 174.254 33.1574 174.256 32.6552V30.6002C174.254 30.0937 174.142 29.6609 173.921 29.2995C173.698 28.9401 173.377 28.6628 172.954 28.4716C172.533 28.2783 172.02 28.1816 171.417 28.1795C170.826 28.1816 170.319 28.2783 169.898 28.4716C169.478 28.6628 169.156 28.9401 168.931 29.2995C168.706 29.6609 168.592 30.0937 168.591 30.6002V32.6552ZM173.133 32.6552C173.133 32.9452 173.063 33.1952 172.927 33.4011C172.79 33.607 172.594 33.7667 172.338 33.876C172.084 33.9853 171.776 34.042 171.417 34.042C171.061 34.042 170.759 33.9853 170.504 33.876C170.25 33.7667 170.056 33.607 169.919 33.4011C169.783 33.1952 169.715 32.9452 169.713 32.6552V30.5876C169.715 30.2955 169.783 30.0475 169.919 29.8416C170.056 29.6335 170.25 29.476 170.504 29.3667C170.759 29.2574 171.061 29.2007 171.417 29.2007C171.776 29.2007 172.084 29.2574 172.338 29.3667C172.594 29.476 172.79 29.6335 172.927 29.8416C173.063 30.0475 173.133 30.2955 173.133 30.5876V32.6552ZM180.249 28.3686C180.142 28.3665 180.066 28.3875 180.018 28.4296C179.97 28.4737 179.946 28.5535 179.946 28.6712V31.0288H176.754V28.6712C176.756 28.5535 176.735 28.4737 176.693 28.4296C176.649 28.3875 176.569 28.3665 176.451 28.3686H175.921C175.804 28.3665 175.724 28.3875 175.679 28.4296C175.637 28.4737 175.616 28.5535 175.619 28.6712V34.5715C175.619 34.7732 175.72 34.8741 175.921 34.8741H176.451C176.569 34.8762 176.649 34.8552 176.693 34.8132C176.735 34.7691 176.756 34.6892 176.754 34.5715V32.0752H179.946V34.5715C179.946 34.6892 179.97 34.7691 180.018 34.8132C180.066 34.8552 180.142 34.8762 180.249 34.8741H180.779C180.886 34.8762 180.962 34.8552 181.011 34.8132C181.059 34.7691 181.082 34.6892 181.082 34.5715V28.6712C181.082 28.5535 181.059 28.4737 181.011 28.4296C180.962 28.3875 180.886 28.3665 180.779 28.3686H180.249ZM183.631 28.3686C183.513 28.3665 183.433 28.3875 183.389 28.4296C183.347 28.4737 183.326 28.5535 183.328 28.6712V30.638C183.328 31.2936 183.297 31.842 183.231 32.2833C183.164 32.7245 183.063 33.0586 182.924 33.2856C182.834 33.4347 182.752 33.5503 182.676 33.6344C182.6 33.7184 182.521 33.7899 182.436 33.8445C182.352 33.8991 182.249 33.9559 182.129 34.0168C182.06 34.0609 182.016 34.1114 181.997 34.1702C181.978 34.2269 181.984 34.2942 182.016 34.3698L182.281 34.8741C182.325 34.9561 182.375 35.0086 182.436 35.0338C182.495 35.059 182.565 35.0569 182.647 35.0254C182.817 34.9435 182.971 34.8573 183.107 34.7669C183.242 34.6745 183.37 34.5631 183.49 34.4307C183.612 34.2984 183.734 34.1324 183.858 33.9285C184.047 33.6259 184.188 33.2036 184.283 32.6657C184.377 32.1278 184.426 31.4764 184.426 30.7136V29.415H186.861V34.5715C186.859 34.6892 186.88 34.7691 186.922 34.8132C186.966 34.8552 187.046 34.8762 187.164 34.8741H187.681C187.789 34.8762 187.864 34.8552 187.913 34.8132C187.961 34.7691 187.984 34.6892 187.984 34.5715V28.6712C187.984 28.5535 187.961 28.4737 187.913 28.4296C187.864 28.3875 187.789 28.3665 187.681 28.3686H183.631ZM189.334 29.5033C189.284 29.6041 189.271 29.6903 189.299 29.7596C189.324 29.8311 189.391 29.8878 189.498 29.9319L189.889 30.1085C189.967 30.1379 190.028 30.1526 190.07 30.1526C190.112 30.1526 190.15 30.1379 190.184 30.1063C190.217 30.0727 190.257 30.0244 190.306 29.9572C190.464 29.6987 190.672 29.5054 190.932 29.3793C191.191 29.2512 191.504 29.1881 191.87 29.1881C192.238 29.1881 192.533 29.2469 192.753 29.3604C192.974 29.476 193.132 29.6441 193.229 29.8668C193.325 30.0917 193.374 30.3648 193.372 30.6884V31.1675C193.12 31.136 192.873 31.1129 192.634 31.1003C192.394 31.0855 192.16 31.0792 191.933 31.0792C191.258 31.0771 190.716 31.1402 190.302 31.2684C189.887 31.3966 189.587 31.6045 189.397 31.8945C189.21 32.1866 189.117 32.5732 189.12 33.0586C189.12 33.4053 189.17 33.7058 189.269 33.958C189.37 34.2101 189.517 34.4139 189.713 34.5715C189.908 34.7354 190.188 34.8573 190.552 34.9392C190.916 35.0212 191.359 35.0632 191.883 35.0632C192.356 35.0632 192.772 35.0359 193.134 34.9791C193.494 34.9245 193.801 34.8426 194.053 34.7354C194.171 34.6871 194.262 34.6346 194.329 34.5799C194.394 34.5253 194.44 34.4538 194.467 34.3656C194.495 34.2774 194.507 34.1618 194.507 34.0168V30.7262C194.509 30.1988 194.425 29.7449 194.253 29.3646C194.081 28.9864 193.803 28.6943 193.42 28.4884C193.035 28.2846 192.529 28.1816 191.896 28.1795C191.271 28.1795 190.745 28.2888 190.316 28.5094C189.889 28.73 189.561 29.062 189.334 29.5033ZM193.372 33.689C193.372 33.7583 193.357 33.8151 193.325 33.8613C193.294 33.9054 193.246 33.9411 193.182 33.9664C192.892 34.0672 192.425 34.1176 191.782 34.1176C191.393 34.1176 191.088 34.0798 190.865 34.0021C190.642 33.9264 190.482 33.8087 190.39 33.6533C190.297 33.4957 190.253 33.2982 190.255 33.0586C190.253 32.8107 190.302 32.6089 190.4 32.4535C190.499 32.298 190.661 32.1824 190.888 32.1088C191.117 32.0353 191.422 31.9996 191.807 31.9996C191.99 31.9996 192.213 32.008 192.476 32.0269C192.739 32.0437 193.038 32.0689 193.372 32.1005V33.689ZM200.728 26.1371C200.747 26.074 200.747 26.0194 200.726 25.9753C200.703 25.929 200.659 25.8912 200.589 25.8597L200.148 25.6958C200.021 25.658 199.933 25.6958 199.883 25.8093C199.719 26.364 199.353 26.6414 198.785 26.6414C198.501 26.6414 198.27 26.5721 198.091 26.4334C197.912 26.2947 197.782 26.0866 197.7 25.8093C197.675 25.7525 197.637 25.7168 197.586 25.7021C197.536 25.6874 197.473 25.6895 197.397 25.7085L197.006 25.8597C196.937 25.8786 196.892 25.9122 196.869 25.9606C196.848 26.0089 196.848 26.0677 196.867 26.1371C197.012 26.5847 197.243 26.9187 197.561 27.1415C197.879 27.3621 198.287 27.4735 198.785 27.4735C199.29 27.4735 199.704 27.3621 200.026 27.1415C200.349 26.9187 200.583 26.5847 200.728 26.1371ZM196.274 28.3686C196.156 28.3665 196.076 28.3875 196.032 28.4296C195.99 28.4737 195.969 28.5535 195.971 28.6712V34.5715C195.971 34.7732 196.072 34.8741 196.274 34.8741H196.804C196.93 34.8741 197.031 34.8237 197.107 34.7228L199.82 31.0288C199.965 30.8208 200.097 30.6211 200.215 30.43C200.335 30.2388 200.438 30.0517 200.526 29.8689H200.564C200.495 30.1967 200.444 30.4993 200.411 30.7787C200.379 31.0561 200.362 31.3125 200.362 31.5457V34.5715C200.36 34.6892 200.381 34.7691 200.423 34.8132C200.467 34.8552 200.547 34.8762 200.665 34.8741H201.195C201.313 34.8762 201.393 34.8552 201.437 34.8132C201.479 34.7691 201.5 34.6892 201.498 34.5715V28.6712C201.5 28.5535 201.479 28.4737 201.437 28.4296C201.393 28.3875 201.313 28.3665 201.195 28.3686H200.665C200.602 28.3686 200.545 28.3812 200.497 28.4065C200.448 28.4317 200.406 28.4695 200.375 28.5199L197.624 32.2517C197.346 32.6173 197.119 32.9956 196.943 33.3864H196.905C196.974 33.1154 197.025 32.8443 197.058 32.5711C197.09 32.3001 197.107 32.0248 197.107 31.7474V28.6712C197.109 28.5535 197.088 28.4737 197.046 28.4296C197.002 28.3875 196.922 28.3665 196.804 28.3686H196.274ZM207.693 28.3686C207.586 28.3665 207.51 28.3875 207.462 28.4296C207.413 28.4737 207.39 28.5535 207.39 28.6712V31.0288H204.198V28.6712C204.2 28.5535 204.179 28.4737 204.137 28.4296C204.093 28.3875 204.013 28.3665 203.895 28.3686H203.365C203.248 28.3665 203.167 28.3875 203.123 28.4296C203.081 28.4737 203.06 28.5535 203.062 28.6712V34.5715C203.062 34.7732 203.163 34.8741 203.365 34.8741H203.895C204.013 34.8762 204.093 34.8552 204.137 34.8132C204.179 34.7691 204.2 34.6892 204.198 34.5715V32.0752H207.39V34.5715C207.39 34.6892 207.413 34.7691 207.462 34.8132C207.51 34.8552 207.586 34.8762 207.693 34.8741H208.223C208.331 34.8762 208.406 34.8552 208.455 34.8132C208.503 34.7691 208.526 34.6892 208.526 34.5715V28.6712C208.526 28.5535 208.503 28.4737 208.455 28.4296C208.406 28.3875 208.331 28.3665 208.223 28.3686H207.693Z" fill="#140A32"/>
<path d="M6.38751 31.0542H4.96167V28.6714C4.96379 28.5537 4.94272 28.4739 4.90067 28.4297C4.8565 28.3877 4.77663 28.3667 4.65888 28.3688H4.12889C4.01114 28.3667 3.9312 28.3877 3.88703 28.4297C3.84501 28.4739 3.82398 28.5537 3.82607 28.6714V34.5717C3.82607 34.7734 3.927 34.8743 4.12889 34.8743H4.65888C4.77663 34.8763 4.8565 34.8554 4.90067 34.8133C4.94272 34.7692 4.96379 34.6893 4.96167 34.5717V32.1006H6.38751V32.6679C6.38959 33.1701 6.49897 33.5988 6.71348 33.956C6.93007 34.3133 7.24343 34.5864 7.65563 34.7755C8.06567 34.9646 8.5641 35.0613 9.1508 35.0634C9.74175 35.0613 10.2423 34.9646 10.6565 34.7755C11.0687 34.5864 11.3842 34.3133 11.6008 33.956C11.8153 33.5988 11.9246 33.1701 11.9268 32.6679V30.5751C11.9246 30.0729 11.8153 29.6443 11.6008 29.287C11.3842 28.9298 11.0687 28.6567 10.6565 28.4675C10.2423 28.2763 9.74175 28.1818 9.1508 28.1797C8.5641 28.1818 8.06567 28.2763 7.65563 28.4675C7.24343 28.6567 6.93007 28.9298 6.71348 29.287C6.49897 29.6443 6.38959 30.0729 6.38751 30.5751V31.0542ZM10.7911 32.6679C10.7911 32.9537 10.7238 33.1996 10.5935 33.4055C10.4631 33.6093 10.2759 33.7669 10.0299 33.8762C9.78592 33.9854 9.4936 34.0422 9.1508 34.0422C8.81013 34.0422 8.51784 33.9854 8.27389 33.8762C8.03203 33.7669 7.84695 33.6093 7.71871 33.4055C7.58831 33.1996 7.52522 32.9537 7.5231 32.6679V30.5751C7.52522 30.2851 7.58831 30.0372 7.71871 29.8312C7.84695 29.6275 8.03203 29.4719 8.27389 29.3627C8.51784 29.2555 8.81013 29.2009 9.1508 29.2009C9.67655 29.203 10.0825 29.3228 10.3643 29.5623C10.646 29.7997 10.789 30.138 10.7911 30.5751V32.6679ZM13.769 28.5453C13.6365 28.5978 13.5335 28.6525 13.4619 28.7113C13.3904 28.7701 13.3421 28.8415 13.3147 28.9298C13.2874 29.016 13.2748 29.1273 13.2769 29.2639V37.3453C13.2748 37.4527 13.2979 37.5283 13.3421 37.5765C13.3862 37.6248 13.4619 37.6478 13.5671 37.6478H14.097C14.2148 37.65 14.2947 37.6292 14.3389 37.5871C14.3809 37.5429 14.402 37.4629 14.3999 37.3453V34.723C14.7279 34.8364 15.0287 34.9205 15.2999 34.9772C15.5733 35.034 15.8194 35.0634 16.0402 35.0634C17.8319 35.0634 18.7278 34.2061 18.7278 32.4914V30.7138C18.7278 29.8691 18.507 29.2345 18.0675 28.8121C17.6258 28.3898 16.9676 28.1797 16.0907 28.1797C15.6301 28.1797 15.2074 28.2112 14.8204 28.2721C14.4356 28.3352 14.0844 28.4255 13.769 28.5453ZM17.5922 32.4536C17.5922 32.9768 17.4576 33.3698 17.1842 33.6345C16.9108 33.8972 16.5007 34.0296 15.9519 34.0296C15.7499 34.0296 15.5207 34.0022 15.2621 33.9455C15.0013 33.8909 14.7153 33.8089 14.3999 33.7017V29.6674C14.3978 29.5938 14.4083 29.5392 14.4335 29.5014C14.4567 29.4635 14.5092 29.432 14.5891 29.4026C14.8036 29.3396 15.0223 29.2912 15.2431 29.2597C15.4661 29.2282 15.6932 29.2135 15.9266 29.2135C16.4818 29.2135 16.8982 29.3417 17.1758 29.6001C17.4534 29.8564 17.5922 30.241 17.5922 30.7516V32.4536ZM20.3933 28.3688C20.2756 28.3667 20.1957 28.3877 20.1515 28.4297C20.1095 28.4739 20.0884 28.5537 20.0905 28.6714V34.5717C20.0905 34.7734 20.1915 34.8743 20.3933 34.8743H20.9233C21.0495 34.8743 21.1504 34.8238 21.2261 34.723L23.939 31.029C24.0841 30.8209 24.2166 30.6213 24.3343 30.4301C24.4542 30.2389 24.5572 30.0519 24.6456 29.8691H24.6834C24.614 30.1969 24.5636 30.4995 24.5299 30.7789C24.4984 31.0563 24.4815 31.3126 24.4815 31.5459V34.5717C24.4795 34.6893 24.5005 34.7692 24.5425 34.8133C24.5867 34.8554 24.6666 34.8763 24.7844 34.8743H25.3143C25.4321 34.8763 25.512 34.8554 25.5562 34.8133C25.5982 34.7692 25.6193 34.6893 25.6172 34.5717V28.6714C25.6193 28.5537 25.5982 28.4739 25.5562 28.4297C25.512 28.3877 25.4321 28.3667 25.3143 28.3688H24.7844C24.7213 28.3688 24.6645 28.3814 24.6162 28.4066C24.5678 28.4318 24.5257 28.4697 24.4942 28.5201L21.7434 32.2519C21.4659 32.6175 21.2388 32.9958 21.0621 33.3866H21.0243C21.0937 33.1155 21.1441 32.8444 21.1778 32.5713C21.2093 32.3002 21.2261 32.025 21.2261 31.7476V28.6714C21.2283 28.5537 21.2072 28.4739 21.1652 28.4297C21.121 28.3877 21.0411 28.3667 20.9233 28.3688H20.3933ZM32.8725 33.8278V28.6714C32.8725 28.5537 32.8493 28.4739 32.801 28.4297C32.7526 28.3877 32.6769 28.3667 32.5696 28.3688H28.4057C28.2985 28.3667 28.2228 28.3877 28.1744 28.4297C28.126 28.4739 28.1029 28.5537 28.1029 28.6714V30.5751C28.1029 31.0983 28.0839 31.5459 28.0482 31.9199C28.0104 32.2918 27.9578 32.5923 27.8884 32.8192C27.8127 33.0525 27.7244 33.2521 27.6213 33.4181C27.5203 33.5841 27.4026 33.7207 27.2701 33.8278H26.9294C26.8243 33.8257 26.7486 33.8488 26.7044 33.8951C26.6603 33.9434 26.6371 34.0254 26.6392 34.1431V36.3241C26.6371 36.4313 26.6603 36.507 26.7044 36.5553C26.7486 36.6035 26.8243 36.6269 26.9294 36.6269H27.4215C27.5288 36.6269 27.6087 36.6013 27.6592 36.5509C27.7117 36.5007 27.737 36.425 27.737 36.3241V34.8743H32.721V36.3241C32.721 36.4313 32.7442 36.507 32.7925 36.5553C32.8409 36.6035 32.9187 36.6269 33.0239 36.6269H33.516C33.6338 36.6269 33.7137 36.6035 33.7578 36.5553C33.7999 36.507 33.8209 36.4313 33.8188 36.3241V34.1431C33.8209 34.0254 33.7999 33.9434 33.7578 33.8951C33.7137 33.8488 33.6338 33.8257 33.516 33.8278H32.8725ZM29.2006 29.4152H31.7368V33.8278H28.5698C28.778 33.5253 28.9357 33.1092 29.0408 32.5776C29.148 32.0481 29.2006 31.4009 29.2006 30.6382V29.4152ZM35.1184 28.3688C35.0006 28.3667 34.9207 28.3877 34.8766 28.4297C34.8345 28.4739 34.8135 28.5537 34.8156 28.6714V34.5717C34.8156 34.7734 34.9165 34.8743 35.1184 34.8743H35.6484C35.7746 34.8743 35.8755 34.8238 35.9512 34.723L38.6639 31.029C38.8091 30.8209 38.9415 30.6213 39.0596 30.4301C39.1792 30.2389 39.2823 30.0519 39.3708 29.8691H39.4085C39.339 30.1969 39.2885 30.4995 39.2549 30.7789C39.2234 31.0563 39.2066 31.3126 39.2066 31.5459V34.5717C39.2044 34.6893 39.2256 34.7692 39.2677 34.8133C39.3119 34.8554 39.3916 34.8763 39.5094 34.8743H40.0393C40.157 34.8763 40.2371 34.8554 40.2813 34.8133C40.3234 34.7692 40.3442 34.6893 40.3421 34.5717V28.6714C40.3442 28.5537 40.3234 28.4739 40.2813 28.4297C40.2371 28.3877 40.157 28.3667 40.0393 28.3688H39.5094C39.4465 28.3688 39.3894 28.3814 39.3412 28.4066C39.2929 28.4318 39.2509 28.4697 39.219 28.5201L36.4685 32.2519C36.1909 32.6175 35.9638 32.9958 35.7872 33.3866H35.7493C35.8187 33.1155 35.8692 32.8444 35.9028 32.5713C35.9344 32.3002 35.9512 32.025 35.9512 31.7476V28.6714C35.9533 28.5537 35.9323 28.4739 35.8902 28.4297C35.846 28.3877 35.7662 28.3667 35.6484 28.3688H35.1184ZM41.5283 30.1969C41.5261 30.9975 41.7324 31.5963 42.1507 31.9955C42.5694 32.3927 43.2149 32.5923 44.0896 32.5923C44.8341 32.5923 45.364 32.5293 45.6796 32.4032V34.5717C45.6796 34.6893 45.7026 34.7692 45.7513 34.8133C45.7995 34.8554 45.8752 34.8763 45.9824 34.8743H46.5122C46.6198 34.8763 46.6955 34.8554 46.7437 34.8133C46.792 34.7692 46.8154 34.6893 46.8154 34.5717V28.6714C46.8154 28.5537 46.792 28.4739 46.7437 28.4297C46.6955 28.3877 46.6198 28.3667 46.5122 28.3688H45.9824C45.8752 28.3667 45.7995 28.3877 45.7513 28.4297C45.7026 28.4739 45.6796 28.5537 45.6796 28.6714V31.3442C45.3011 31.4954 44.8217 31.5711 44.241 31.5711C43.1812 31.5711 42.6514 31.1046 42.6514 30.1717V28.6714C42.6535 28.5642 42.6301 28.4885 42.5863 28.4402C42.542 28.3919 42.4663 28.3688 42.361 28.3688H41.8311C41.7134 28.3667 41.6333 28.3877 41.5894 28.4297C41.5474 28.4739 41.5261 28.5537 41.5283 28.6714V30.1969ZM48.1527 32.441C48.1527 32.981 48.2558 33.4475 48.4617 33.8383C48.668 34.2292 48.977 34.5297 49.3913 34.7419C49.8078 34.9541 50.3271 35.0613 50.9539 35.0634C51.6099 35.0634 52.1654 34.9562 52.6174 34.7398C53.0715 34.5255 53.4208 34.1998 53.6669 33.7648C53.8055 33.5505 53.7678 33.3866 53.5531 33.2731L53.2123 33.0966C53.1074 33.0273 53.017 33.002 52.9432 33.021C52.8675 33.0399 52.794 33.1029 52.7205 33.2101C52.5501 33.5001 52.3168 33.7186 52.0242 33.8635C51.7298 34.0086 51.3766 34.08 50.9667 34.08C50.4156 34.0779 49.9969 33.9476 49.7091 33.6871C49.4227 33.4286 49.2779 33.0546 49.2757 32.5671V31.9619H53.3893C53.5469 31.9619 53.6647 31.9241 53.7404 31.8506C53.8183 31.7749 53.8559 31.6657 53.8559 31.5207V30.7894C53.8559 30.2641 53.7466 29.8081 53.5323 29.4173C53.3154 29.0286 52.9958 28.7239 52.5731 28.5096C52.1504 28.2931 51.6267 28.1839 51.0043 28.1797C50.3859 28.1818 49.8645 28.2869 49.4396 28.497C49.0172 28.7092 48.6972 29.0139 48.4807 29.4152C48.2621 29.8165 48.1527 30.304 48.1527 30.8777V32.441ZM52.7329 31.092H49.2757V30.7264C49.2757 30.3923 49.343 30.1086 49.4732 29.8712C49.6059 29.6359 49.8016 29.4531 50.0579 29.3291C50.3146 29.203 50.6299 29.1378 51.0043 29.1378C51.5678 29.14 51.9968 29.2786 52.2893 29.5539C52.5837 29.827 52.7311 30.2179 52.7329 30.7264V31.092ZM54.9032 32.5167C54.9032 33.0567 55.0064 33.5148 55.2104 33.8951C55.4145 34.2733 55.7191 34.5612 56.1272 34.7608C56.5353 34.9604 57.044 35.0613 57.6539 35.0634C59.0797 35.0634 60.0009 34.4834 60.4174 33.3236C60.4551 33.2227 60.4551 33.1365 60.4192 33.0672C60.3816 32.9957 60.3099 32.939 60.2028 32.8949L59.761 32.7688C59.6454 32.7226 59.5551 32.7163 59.4941 32.7457C59.433 32.7772 59.3785 32.8507 59.3321 32.9705C59.2121 33.3362 59.0168 33.6114 58.7411 33.7942C58.4679 33.977 58.1147 34.0674 57.6792 34.0674C57.1409 34.0632 56.735 33.9329 56.4574 33.6723C56.1799 33.4118 56.0409 33.0441 56.0387 32.5671V30.6634C56.0409 30.1885 56.1799 29.8207 56.4574 29.5644C56.735 29.308 57.1409 29.1778 57.6792 29.1757C58.1147 29.1757 58.4679 29.2639 58.7411 29.4404C59.0124 29.6169 59.2059 29.8817 59.3196 30.2347C59.3639 30.3482 59.4206 30.4217 59.4919 30.4532C59.5613 30.4869 59.6476 30.4806 59.7486 30.4364L60.1903 30.2977C60.2975 30.2599 60.3669 30.2053 60.4006 30.136C60.432 30.0645 60.4298 29.9762 60.3922 29.8691C60.2155 29.308 59.9062 28.8857 59.4626 28.6041C59.0209 28.3205 58.4427 28.1797 57.7296 28.1797C57.1028 28.1818 56.5795 28.2826 56.1608 28.4802C55.7425 28.6798 55.4291 28.9676 55.2188 29.3459C55.0086 29.722 54.9032 30.178 54.9032 30.7138V32.5167ZM66.0069 32.2771C65.8745 32.0061 65.7231 31.7854 65.5549 31.6131C65.3845 31.4429 65.1995 31.319 64.9976 31.2433L67.0166 28.7218C67.1113 28.602 67.1427 28.5138 67.1113 28.4549C67.0794 28.3982 66.9847 28.3688 66.8271 28.3688H66.3477C66.2278 28.3667 66.1331 28.3709 66.0658 28.3793C65.9967 28.3877 65.9396 28.4087 65.8935 28.4423C65.8493 28.4739 65.8028 28.5264 65.7546 28.5958L63.8746 31.029H63.7609H62.7644V28.6714C62.7662 28.5537 62.7432 28.4739 62.6971 28.4297C62.6484 28.3877 62.5665 28.3667 62.4488 28.3688H61.9441C61.8264 28.3667 61.7441 28.3877 61.6958 28.4297C61.6498 28.4739 61.6264 28.5537 61.6286 28.6714V34.5591C61.6264 34.6767 61.6498 34.7587 61.6958 34.807C61.7441 34.8533 61.8264 34.8763 61.9441 34.8743H62.4488C62.5665 34.8763 62.6484 34.8533 62.6971 34.807C62.7432 34.7587 62.7662 34.6767 62.7644 34.5591V32.0754H63.9126C64.1079 32.0754 64.2761 32.0964 64.4173 32.1426C64.5581 32.1889 64.678 32.2624 64.7789 32.3654C64.8799 32.4662 64.9702 32.6007 65.0481 32.7688L65.9188 34.5969C65.9546 34.6747 65.9901 34.7356 66.0281 34.7755C66.0639 34.8154 66.1144 34.8427 66.1751 34.8554C66.2384 34.868 66.3247 34.8743 66.4358 34.8743H66.9281C67.0732 34.8743 67.1595 34.8469 67.1888 34.7923C67.2184 34.7356 67.1932 34.6452 67.1175 34.5213L66.0069 32.2771ZM68.5052 28.3688C68.3875 28.3667 68.3078 28.3877 68.2635 28.4297C68.2215 28.4739 68.2003 28.5537 68.2025 28.6714V34.5717C68.2025 34.7734 68.3034 34.8743 68.5052 34.8743H69.0355C69.1617 34.8743 69.2626 34.8238 69.3383 34.723L72.0509 31.029C72.1961 30.8209 72.3285 30.6213 72.4462 30.4301C72.5662 30.2389 72.6693 30.0519 72.7574 29.8691H72.7955C72.726 30.1969 72.6755 30.4995 72.6419 30.7789C72.6104 31.0563 72.5936 31.3126 72.5936 31.5459V34.5717C72.5914 34.6893 72.6126 34.7692 72.6547 34.8133C72.6986 34.8554 72.7786 34.8763 72.8964 34.8743H73.4263C73.544 34.8763 73.6241 34.8554 73.6684 34.8133C73.7104 34.7692 73.7313 34.6893 73.7291 34.5717V28.6714C73.7313 28.5537 73.7104 28.4739 73.6684 28.4297C73.6241 28.3877 73.544 28.3667 73.4263 28.3688H72.8964C72.8331 28.3688 72.7765 28.3814 72.7282 28.4066C72.6799 28.4318 72.6379 28.4697 72.606 28.5201L69.8554 32.2519C69.5778 32.6175 69.3507 32.9958 69.1741 33.3866H69.1364C69.2055 33.1155 69.256 32.8444 69.2896 32.5713C69.3215 32.3002 69.3383 32.025 69.3383 31.7476V28.6714C69.3401 28.5537 69.3193 28.4739 69.2772 28.4297C69.233 28.3877 69.1532 28.3667 69.0355 28.3688H68.5052ZM75.0667 32.441C75.0667 32.981 75.1699 33.4475 75.3757 33.8383C75.582 34.2292 75.891 34.5297 76.3053 34.7419C76.7218 34.9541 77.2411 35.0613 77.8679 35.0634C78.5239 35.0634 79.079 34.9562 79.5314 34.7398C79.9855 34.5255 80.3348 34.1998 80.5805 33.7648C80.7195 33.5505 80.6814 33.3866 80.4672 33.2731L80.1263 33.0966C80.0214 33.0273 79.9307 33.002 79.8572 33.021C79.7815 33.0399 79.708 33.1029 79.6345 33.2101C79.4641 33.5001 79.2304 33.7186 78.9382 33.8635C78.6439 34.0086 78.2906 34.08 77.8803 34.08C77.3296 34.0779 76.9109 33.9476 76.6227 33.6871C76.3368 33.4286 76.1916 33.0546 76.1898 32.5671V31.9619H80.303C80.4609 31.9619 80.5787 31.9241 80.6544 31.8506C80.7323 31.7749 80.77 31.6657 80.77 31.5207V30.7894C80.77 30.2641 80.6606 29.8081 80.446 29.4173C80.2295 29.0286 79.9099 28.7239 79.4871 28.5096C79.0644 28.2931 78.5407 28.1839 77.9183 28.1797C77.3 28.1818 76.7785 28.2869 76.3536 28.497C75.9308 28.7092 75.6112 29.0139 75.3948 29.4152C75.1761 29.8165 75.0667 30.304 75.0667 30.8777V32.441ZM79.6469 31.092H76.1898V30.7264C76.1898 30.3923 76.257 30.1086 76.3872 29.8712C76.52 29.6359 76.7152 29.4531 76.9719 29.3291C77.2287 29.203 77.5439 29.1378 77.9183 29.1378C78.4819 29.14 78.9108 29.2786 79.2034 29.5539C79.4977 29.827 79.6447 30.2179 79.6469 30.7264V31.092ZM89.2871 32.2771C89.1544 32.0061 89.003 31.7854 88.8348 31.6131C88.6647 31.4429 88.4793 31.319 88.2775 31.2433L90.2964 28.7218C90.3911 28.602 90.4226 28.5138 90.3911 28.4549C90.3597 28.3982 90.2649 28.3688 90.1073 28.3688H89.6276C89.508 28.3667 89.4133 28.3709 89.346 28.3793C89.2765 28.3877 89.2198 28.4087 89.1734 28.4423C89.1291 28.4739 89.0831 28.5264 89.0348 28.5958L87.1544 31.029H87.0411H86.0442V28.6714C86.0464 28.5537 86.023 28.4739 85.9769 28.4297C85.9287 28.3877 85.8464 28.3667 85.7286 28.3688H85.224C85.1062 28.3667 85.0243 28.3877 84.9761 28.4297C84.9296 28.4739 84.9066 28.5537 84.9088 28.6714V34.5591C84.9066 34.6767 84.9296 34.7587 84.9761 34.807C85.0243 34.8533 85.1062 34.8763 85.224 34.8743H85.7286C85.8464 34.8763 85.9287 34.8533 85.9769 34.807C86.023 34.7587 86.0464 34.6767 86.0442 34.5591V32.0754H87.1925C87.3881 32.0754 87.5563 32.0964 87.6971 32.1426C87.8379 32.1889 87.9578 32.2624 88.0588 32.3654C88.1597 32.4662 88.2504 32.6007 88.3279 32.7688L89.1986 34.5969C89.2345 34.6747 89.2703 34.7356 89.308 34.7755C89.3438 34.8154 89.3942 34.8427 89.4553 34.8554C89.5182 34.868 89.6045 34.8743 89.7161 34.8743H90.2083C90.3531 34.8743 90.4394 34.8469 90.469 34.7923C90.4983 34.7356 90.473 34.6452 90.3973 34.5213L89.2871 32.2771ZM91.2808 32.6553C91.2826 33.1575 91.3964 33.5883 91.6213 33.9455C91.8462 34.3048 92.168 34.5801 92.5889 34.7734C93.0094 34.9646 93.5163 35.0613 94.1072 35.0634C94.7106 35.0613 95.2236 34.9646 95.6442 34.7734C96.0669 34.5801 96.3887 34.3048 96.6118 33.9455C96.8326 33.5883 96.9438 33.1575 96.946 32.6553V30.6003C96.9438 30.0939 96.8326 29.6611 96.6118 29.2997C96.3887 28.9403 96.0669 28.663 95.6442 28.4717C95.2236 28.2784 94.7106 28.1818 94.1072 28.1797C93.5163 28.1818 93.0094 28.2784 92.5889 28.4717C92.168 28.663 91.8462 28.9403 91.6213 29.2997C91.3964 29.6611 91.2826 30.0939 91.2808 30.6003V32.6553ZM95.823 32.6553C95.823 32.9453 95.7535 33.1954 95.6171 33.4013C95.4803 33.6072 95.2847 33.7669 95.028 33.8762C94.7738 33.9854 94.4667 34.0422 94.1072 34.0422C93.7518 34.0422 93.449 33.9854 93.1945 33.8762C92.9399 33.7669 92.7465 33.6072 92.6097 33.4013C92.473 33.1954 92.4057 32.9453 92.4035 32.6553V30.5877C92.4057 30.2956 92.473 30.0477 92.6097 29.8417C92.7465 29.6337 92.9399 29.4761 93.1945 29.3669C93.449 29.2576 93.7518 29.2009 94.1072 29.2009C94.4667 29.2009 94.7738 29.2576 95.028 29.3669C95.2847 29.4761 95.4803 29.6337 95.6171 29.8417C95.7535 30.0477 95.823 30.2956 95.823 30.5877V32.6553ZM102.94 28.3688C102.832 28.3667 102.757 28.3877 102.708 28.4297C102.66 28.4739 102.637 28.5537 102.637 28.6714V31.029H99.4444V28.6714C99.4466 28.5537 99.4253 28.4739 99.3833 28.4297C99.3394 28.3877 99.2593 28.3667 99.1416 28.3688H98.6117C98.4939 28.3667 98.4139 28.3877 98.3696 28.4297C98.3279 28.4739 98.3067 28.5537 98.3089 28.6714V34.5717C98.3089 34.7734 98.4098 34.8743 98.6117 34.8743H99.1416C99.2593 34.8763 99.3394 34.8554 99.3833 34.8133C99.4253 34.7692 99.4466 34.6893 99.4444 34.5717V32.0754H102.637V34.5717C102.637 34.6893 102.66 34.7692 102.708 34.8133C102.757 34.8554 102.832 34.8763 102.94 34.8743H103.469C103.577 34.8763 103.652 34.8554 103.701 34.8133C103.749 34.7692 103.772 34.6893 103.772 34.5717V28.6714C103.772 28.5537 103.749 28.4739 103.701 28.4297C103.652 28.3877 103.577 28.3667 103.469 28.3688H102.94ZM105.122 32.5167C105.122 33.0567 105.225 33.5148 105.43 33.8951C105.634 34.2733 105.939 34.5612 106.346 34.7608C106.754 34.9604 107.263 35.0613 107.873 35.0634C109.299 35.0634 110.22 34.4834 110.636 33.3236C110.674 33.2227 110.674 33.1365 110.639 33.0672C110.601 32.9957 110.529 32.939 110.422 32.8949L109.98 32.7688C109.865 32.7226 109.774 32.7163 109.713 32.7457C109.652 32.7772 109.598 32.8507 109.552 32.9705C109.432 33.3362 109.236 33.6114 108.961 33.7942C108.687 33.977 108.334 34.0674 107.898 34.0674C107.36 34.0632 106.954 33.9329 106.677 33.6723C106.399 33.4118 106.26 33.0441 106.258 32.5671V30.6634C106.26 30.1885 106.399 29.8207 106.677 29.5644C106.954 29.308 107.36 29.1778 107.898 29.1757C108.334 29.1757 108.687 29.2639 108.961 29.4404C109.232 29.6169 109.425 29.8817 109.539 30.2347C109.583 30.3482 109.64 30.4217 109.711 30.4532C109.78 30.4869 109.867 30.4806 109.968 30.4364L110.409 30.2977C110.517 30.2599 110.586 30.2053 110.62 30.136C110.651 30.0645 110.649 29.9762 110.611 29.8691C110.435 29.308 110.125 28.8857 109.682 28.6041C109.24 28.3205 108.662 28.1797 107.949 28.1797C107.322 28.1818 106.799 28.2826 106.38 28.4802C105.962 28.6798 105.648 28.9676 105.438 29.3459C105.228 29.722 105.122 30.178 105.122 30.7138V32.5167ZM116.466 28.3688C116.359 28.3667 116.283 28.3877 116.235 28.4297C116.186 28.4739 116.163 28.5537 116.163 28.6714V33.5253C115.879 33.6135 115.602 33.6807 115.332 33.7249C115.061 33.769 114.801 33.79 114.548 33.79C114.018 33.79 113.62 33.6639 113.356 33.4139C113.091 33.1617 112.958 32.7877 112.958 32.2897V28.6714C112.96 28.5642 112.937 28.4885 112.893 28.4402C112.849 28.3919 112.773 28.3688 112.668 28.3688H112.138C112.02 28.3667 111.941 28.3877 111.896 28.4297C111.854 28.4739 111.833 28.5537 111.835 28.6714V32.3276C111.835 33.1597 112.05 33.7837 112.477 34.1998C112.906 34.6158 113.545 34.8238 114.396 34.8238C114.662 34.8238 114.941 34.8007 115.238 34.7566C115.532 34.7125 115.841 34.6473 116.163 34.5591V35.2399C116.163 35.7946 116.029 36.2107 115.757 36.4881C115.488 36.7654 115.084 36.9042 114.548 36.9042C114.188 36.9042 113.879 36.8348 113.619 36.6941C113.36 36.5553 113.147 36.3431 112.983 36.0594C112.935 35.9921 112.887 35.9438 112.842 35.9144C112.796 35.885 112.746 35.8745 112.691 35.8808C112.636 35.885 112.569 35.9081 112.491 35.9459L112.125 36.1476C112.018 36.2044 111.953 36.2716 111.93 36.3494C111.907 36.4271 111.93 36.5196 111.999 36.6269C112.245 37.0555 112.58 37.377 113.007 37.5912C113.431 37.8056 113.949 37.9127 114.561 37.9127C116.378 37.9127 117.286 37.0051 117.286 35.1894V28.6714C117.288 28.5537 117.267 28.4739 117.225 28.4297C117.181 28.3877 117.101 28.3667 116.983 28.3688H116.466ZM119.81 28.3688C119.692 28.3667 119.612 28.3877 119.568 28.4297C119.526 28.4739 119.505 28.5537 119.507 28.6714V30.6382C119.507 31.2938 119.475 31.8422 119.41 32.2834C119.343 32.7247 119.242 33.0588 119.103 33.2857C119.013 33.4349 118.931 33.5505 118.855 33.6345C118.779 33.7186 118.699 33.79 118.615 33.8446C118.531 33.8993 118.428 33.956 118.308 34.017C118.239 34.0611 118.194 34.1115 118.176 34.1704C118.157 34.2271 118.163 34.2943 118.194 34.37L118.46 34.8743C118.504 34.9562 118.554 35.0088 118.615 35.034C118.674 35.0592 118.743 35.0571 118.826 35.0256C118.996 34.9436 119.149 34.8575 119.286 34.7671C119.421 34.6747 119.549 34.5633 119.669 34.4309C119.791 34.2985 119.913 34.1325 120.037 33.9287C120.226 33.6261 120.367 33.2038 120.462 32.6658C120.556 32.1279 120.605 31.4766 120.605 30.7138V29.4152H123.04V34.5717C123.038 34.6893 123.059 34.7692 123.101 34.8133C123.145 34.8554 123.225 34.8763 123.343 34.8743H123.86C123.967 34.8763 124.043 34.8554 124.091 34.8133C124.14 34.7692 124.163 34.6893 124.163 34.5717V28.6714C124.163 28.5537 124.14 28.4739 124.091 28.4297C124.043 28.3877 123.967 28.3667 123.86 28.3688H119.81ZM126.775 30.3356V28.6714C126.777 28.5537 126.756 28.4739 126.714 28.4297C126.67 28.3877 126.59 28.3667 126.472 28.3688H125.942C125.824 28.3667 125.744 28.3877 125.7 28.4297C125.658 28.4739 125.637 28.5537 125.639 28.6714V34.5717C125.637 34.6893 125.658 34.7692 125.7 34.8133C125.744 34.8554 125.824 34.8763 125.942 34.8743H128.731C129.216 34.8722 129.633 34.7797 129.978 34.599C130.322 34.4183 130.588 34.1577 130.773 33.8173C130.958 33.477 131.05 33.0693 131.052 32.5923C131.05 32.1195 130.958 31.7161 130.773 31.3799C130.588 31.0437 130.322 30.7852 129.978 30.6066C129.633 30.428 129.216 30.3376 128.731 30.3356H126.775ZM126.775 33.8657V31.3568H128.592C128.993 31.361 129.305 31.4702 129.527 31.6866C129.75 31.9031 129.864 32.2036 129.866 32.5923C129.864 32.9937 129.75 33.3046 129.527 33.5274C129.305 33.7501 128.993 33.8615 128.592 33.8657H126.775ZM131.873 28.3688C131.754 28.3667 131.675 28.3877 131.63 28.4297C131.588 28.4739 131.568 28.5537 131.569 28.6714V29.1126C131.568 29.2198 131.588 29.2954 131.63 29.3438C131.675 29.3921 131.754 29.4152 131.873 29.4152H133.714V34.5717C133.713 34.6893 133.734 34.7692 133.776 34.8133C133.82 34.8554 133.9 34.8763 134.017 34.8743H134.548C134.652 34.8763 134.728 34.8554 134.772 34.8133C134.817 34.7692 134.84 34.6893 134.838 34.5717V29.4152H136.68C136.787 29.4152 136.863 29.3921 136.911 29.3438C136.96 29.2954 136.983 29.2198 136.983 29.1126V28.6714C136.983 28.5537 136.96 28.4739 136.911 28.4297C136.863 28.3877 136.787 28.3667 136.68 28.3688H131.873ZM137.815 29.5035C137.765 29.6043 137.752 29.6905 137.78 29.7598C137.805 29.8312 137.872 29.888 137.979 29.9321L138.371 30.1086C138.448 30.138 138.509 30.1527 138.551 30.1527C138.593 30.1527 138.631 30.138 138.665 30.1065C138.699 30.0729 138.739 30.0245 138.787 29.9573C138.945 29.6989 139.153 29.5056 139.414 29.3795C139.672 29.2513 139.986 29.1883 140.352 29.1883C140.72 29.1883 141.014 29.2471 141.235 29.3606C141.456 29.4761 141.613 29.6443 141.71 29.867C141.807 30.0918 141.855 30.365 141.853 30.6886V31.1677C141.601 31.1361 141.355 31.113 141.115 31.1004C140.875 31.0857 140.642 31.0794 140.415 31.0794C139.74 31.0773 139.197 31.1403 138.783 31.2685C138.369 31.3967 138.068 31.6047 137.879 31.8947C137.691 32.1868 137.599 32.5734 137.601 33.0588C137.601 33.4055 137.651 33.7059 137.75 33.9581C137.851 34.2103 137.998 34.4141 138.194 34.5717C138.389 34.7356 138.669 34.8575 139.033 34.9394C139.397 35.0214 139.84 35.0634 140.364 35.0634C140.837 35.0634 141.254 35.0361 141.615 34.9793C141.975 34.9247 142.282 34.8427 142.534 34.7356C142.652 34.6873 142.743 34.6347 142.81 34.5801C142.875 34.5255 142.921 34.454 142.949 34.3658C142.976 34.2775 142.989 34.1619 142.989 34.017V30.7264C142.991 30.199 142.907 29.7451 142.734 29.3648C142.562 28.9866 142.284 28.6945 141.901 28.4885C141.517 28.2847 141.01 28.1818 140.377 28.1797C139.752 28.1797 139.226 28.2889 138.798 28.5096C138.371 28.7302 138.042 29.0622 137.815 29.5035ZM141.853 33.6891C141.853 33.7585 141.839 33.8152 141.807 33.8615C141.775 33.9056 141.727 33.9413 141.664 33.9665C141.374 34.0674 140.907 34.1178 140.263 34.1178C139.874 34.1178 139.569 34.08 139.346 34.0022C139.123 33.9266 138.964 33.8089 138.871 33.6534C138.778 33.4959 138.734 33.2983 138.736 33.0588C138.734 32.8108 138.783 32.6091 138.882 32.4536C138.98 32.2981 139.142 32.1825 139.369 32.109C139.599 32.0355 139.904 31.9997 140.288 31.9997C140.472 31.9997 140.694 32.0082 140.957 32.0271C141.22 32.0439 141.519 32.0691 141.853 32.1006V33.6891ZM149.79 33.8278V28.6714C149.79 28.5537 149.767 28.4739 149.718 28.4297C149.67 28.3877 149.594 28.3667 149.487 28.3688H148.957C148.85 28.3667 148.774 28.3877 148.725 28.4297C148.677 28.4739 148.654 28.5537 148.654 28.6714V33.8278H145.588V28.6714C145.59 28.5537 145.569 28.4739 145.527 28.4297C145.483 28.3877 145.403 28.3667 145.285 28.3688H144.755C144.553 28.3688 144.452 28.4697 144.452 28.6714V34.5717C144.45 34.6893 144.471 34.7692 144.514 34.8133C144.557 34.8554 144.637 34.8763 144.755 34.8743H149.638V36.3241C149.638 36.4313 149.662 36.507 149.71 36.5553C149.758 36.6035 149.836 36.6269 149.941 36.6269H150.433C150.551 36.6269 150.631 36.6035 150.675 36.5553C150.717 36.507 150.738 36.4313 150.736 36.3241V34.1431C150.738 34.0254 150.717 33.9434 150.675 33.8951C150.631 33.8488 150.551 33.8257 150.433 33.8278H149.79Z" fill="#140A32"/>
<path d="M152.036 28.3686C151.918 28.3665 151.838 28.3875 151.794 28.4296C151.752 28.4737 151.731 28.5535 151.733 28.6712V34.5715C151.733 34.7732 151.834 34.8741 152.036 34.8741H152.565C152.692 34.8741 152.793 34.8237 152.868 34.7228L155.581 31.0288C155.726 30.8208 155.859 30.6211 155.977 30.43C156.097 30.2388 156.2 30.0517 156.288 29.8689H156.326C156.256 30.1967 156.206 30.4993 156.172 30.7787C156.141 31.0561 156.124 31.3125 156.124 31.5457V34.5715C156.122 34.6892 156.143 34.7691 156.185 34.8132C156.229 34.8552 156.309 34.8762 156.427 34.8741H156.957C157.074 34.8762 157.154 34.8552 157.198 34.8132C157.24 34.7691 157.262 34.6892 157.259 34.5715V28.6712C157.262 28.5535 157.24 28.4737 157.198 28.4296C157.154 28.3875 157.074 28.3665 156.957 28.3686H156.427C156.363 28.3686 156.307 28.3812 156.259 28.4065C156.21 28.4317 156.168 28.4695 156.136 28.5199L153.386 32.2517C153.108 32.6173 152.881 32.9956 152.704 33.3864H152.666C152.736 33.1154 152.786 32.8443 152.82 32.5711C152.851 32.3001 152.868 32.0248 152.868 31.7474V28.6712C152.87 28.5535 152.85 28.4737 152.808 28.4296C152.763 28.3875 152.683 28.3665 152.565 28.3686H152.036ZM159.127 28.3686C159.009 28.3665 158.929 28.3875 158.885 28.4296C158.843 28.4737 158.822 28.5535 158.824 28.6712V34.5715C158.824 34.7732 158.925 34.8741 159.127 34.8741H159.657C159.783 34.8741 159.884 34.8237 159.96 34.7228L162.673 31.0288C162.818 30.8208 162.95 30.6211 163.068 30.43C163.188 30.2388 163.291 30.0517 163.379 29.8689H163.417C163.348 30.1967 163.297 30.4993 163.264 30.7787C163.232 31.0561 163.215 31.3125 163.215 31.5457V34.5715C163.213 34.6892 163.234 34.7691 163.276 34.8132C163.32 34.8552 163.4 34.8762 163.518 34.8741H164.048C164.166 34.8762 164.245 34.8552 164.29 34.8132C164.332 34.7691 164.353 34.6892 164.351 34.5715V28.6712C164.353 28.5535 164.332 28.4737 164.29 28.4296C164.245 28.3875 164.166 28.3665 164.048 28.3686H163.518C163.455 28.3686 163.398 28.3812 163.35 28.4065C163.301 28.4317 163.259 28.4695 163.228 28.5199L160.477 32.2517C160.2 32.6173 159.972 32.9956 159.796 33.3864H159.758C159.827 33.1154 159.878 32.8443 159.911 32.5711C159.943 32.3001 159.96 32.0248 159.96 31.7474V28.6712C159.962 28.5535 159.941 28.4737 159.899 28.4296C159.855 28.3875 159.775 28.3665 159.657 28.3686H159.127ZM168.591 32.6552C168.592 33.1574 168.706 33.5881 168.931 33.9454C169.156 34.3047 169.478 34.5799 169.898 34.7732C170.319 34.9645 170.826 35.0611 171.417 35.0632C172.02 35.0611 172.533 34.9645 172.954 34.7732C173.377 34.5799 173.698 34.3047 173.921 33.9454C174.142 33.5881 174.254 33.1574 174.256 32.6552V30.6002C174.254 30.0937 174.142 29.6609 173.921 29.2995C173.698 28.9401 173.377 28.6628 172.954 28.4716C172.533 28.2783 172.02 28.1816 171.417 28.1795C170.826 28.1816 170.319 28.2783 169.898 28.4716C169.478 28.6628 169.156 28.9401 168.931 29.2995C168.706 29.6609 168.592 30.0937 168.591 30.6002V32.6552ZM173.133 32.6552C173.133 32.9452 173.063 33.1952 172.927 33.4011C172.79 33.607 172.594 33.7667 172.338 33.876C172.084 33.9853 171.776 34.042 171.417 34.042C171.061 34.042 170.759 33.9853 170.504 33.876C170.25 33.7667 170.056 33.607 169.919 33.4011C169.783 33.1952 169.715 32.9452 169.713 32.6552V30.5876C169.715 30.2955 169.783 30.0475 169.919 29.8416C170.056 29.6335 170.25 29.476 170.504 29.3667C170.759 29.2574 171.061 29.2007 171.417 29.2007C171.776 29.2007 172.084 29.2574 172.338 29.3667C172.594 29.476 172.79 29.6335 172.927 29.8416C173.063 30.0475 173.133 30.2955 173.133 30.5876V32.6552ZM180.249 28.3686C180.142 28.3665 180.066 28.3875 180.018 28.4296C179.97 28.4737 179.946 28.5535 179.946 28.6712V31.0288H176.754V28.6712C176.756 28.5535 176.735 28.4737 176.693 28.4296C176.649 28.3875 176.569 28.3665 176.451 28.3686H175.921C175.804 28.3665 175.724 28.3875 175.679 28.4296C175.637 28.4737 175.616 28.5535 175.619 28.6712V34.5715C175.619 34.7732 175.72 34.8741 175.921 34.8741H176.451C176.569 34.8762 176.649 34.8552 176.693 34.8132C176.735 34.7691 176.756 34.6892 176.754 34.5715V32.0752H179.946V34.5715C179.946 34.6892 179.97 34.7691 180.018 34.8132C180.066 34.8552 180.142 34.8762 180.249 34.8741H180.779C180.886 34.8762 180.962 34.8552 181.011 34.8132C181.059 34.7691 181.082 34.6892 181.082 34.5715V28.6712C181.082 28.5535 181.059 28.4737 181.011 28.4296C180.962 28.3875 180.886 28.3665 180.779 28.3686H180.249ZM183.631 28.3686C183.513 28.3665 183.433 28.3875 183.389 28.4296C183.347 28.4737 183.326 28.5535 183.328 28.6712V30.638C183.328 31.2936 183.297 31.842 183.231 32.2833C183.164 32.7245 183.063 33.0586 182.924 33.2856C182.834 33.4347 182.752 33.5503 182.676 33.6344C182.6 33.7184 182.521 33.7899 182.436 33.8445C182.352 33.8991 182.249 33.9559 182.129 34.0168C182.06 34.0609 182.016 34.1114 181.997 34.1702C181.978 34.2269 181.984 34.2942 182.016 34.3698L182.281 34.8741C182.325 34.9561 182.375 35.0086 182.436 35.0338C182.495 35.059 182.565 35.0569 182.647 35.0254C182.817 34.9435 182.971 34.8573 183.107 34.7669C183.242 34.6745 183.37 34.5631 183.49 34.4307C183.612 34.2984 183.734 34.1324 183.858 33.9285C184.047 33.6259 184.188 33.2036 184.283 32.6657C184.377 32.1278 184.426 31.4764 184.426 30.7136V29.415H186.861V34.5715C186.859 34.6892 186.88 34.7691 186.922 34.8132C186.966 34.8552 187.046 34.8762 187.164 34.8741H187.681C187.789 34.8762 187.864 34.8552 187.913 34.8132C187.961 34.7691 187.984 34.6892 187.984 34.5715V28.6712C187.984 28.5535 187.961 28.4737 187.913 28.4296C187.864 28.3875 187.789 28.3665 187.681 28.3686H183.631ZM189.334 29.5033C189.284 29.6041 189.271 29.6903 189.299 29.7596C189.324 29.8311 189.391 29.8878 189.498 29.9319L189.889 30.1085C189.967 30.1379 190.028 30.1526 190.07 30.1526C190.112 30.1526 190.15 30.1379 190.184 30.1063C190.217 30.0727 190.257 30.0244 190.306 29.9572C190.464 29.6987 190.672 29.5054 190.932 29.3793C191.191 29.2512 191.504 29.1881 191.87 29.1881C192.238 29.1881 192.533 29.2469 192.753 29.3604C192.974 29.476 193.132 29.6441 193.229 29.8668C193.325 30.0917 193.374 30.3648 193.372 30.6884V31.1675C193.12 31.136 192.873 31.1129 192.634 31.1003C192.394 31.0855 192.16 31.0792 191.933 31.0792C191.258 31.0771 190.716 31.1402 190.302 31.2684C189.887 31.3966 189.587 31.6045 189.397 31.8945C189.21 32.1866 189.117 32.5732 189.12 33.0586C189.12 33.4053 189.17 33.7058 189.269 33.958C189.37 34.2101 189.517 34.4139 189.713 34.5715C189.908 34.7354 190.188 34.8573 190.552 34.9392C190.916 35.0212 191.359 35.0632 191.883 35.0632C192.356 35.0632 192.772 35.0359 193.134 34.9791C193.494 34.9245 193.801 34.8426 194.053 34.7354C194.171 34.6871 194.262 34.6346 194.329 34.5799C194.394 34.5253 194.44 34.4538 194.467 34.3656C194.495 34.2774 194.507 34.1618 194.507 34.0168V30.7262C194.509 30.1988 194.425 29.7449 194.253 29.3646C194.081 28.9864 193.803 28.6943 193.42 28.4884C193.035 28.2846 192.529 28.1816 191.896 28.1795C191.271 28.1795 190.745 28.2888 190.316 28.5094C189.889 28.73 189.561 29.062 189.334 29.5033ZM193.372 33.689C193.372 33.7583 193.357 33.8151 193.325 33.8613C193.294 33.9054 193.246 33.9411 193.182 33.9664C192.892 34.0672 192.425 34.1176 191.782 34.1176C191.393 34.1176 191.088 34.0798 190.865 34.0021C190.642 33.9264 190.482 33.8087 190.39 33.6533C190.297 33.4957 190.253 33.2982 190.255 33.0586C190.253 32.8107 190.302 32.6089 190.4 32.4535C190.499 32.298 190.661 32.1824 190.888 32.1088C191.117 32.0353 191.422 31.9996 191.807 31.9996C191.99 31.9996 192.213 32.008 192.476 32.0269C192.739 32.0437 193.038 32.0689 193.372 32.1005V33.689ZM200.728 26.1371C200.747 26.074 200.747 26.0194 200.726 25.9753C200.703 25.929 200.659 25.8912 200.589 25.8597L200.148 25.6958C200.021 25.658 199.933 25.6958 199.883 25.8093C199.719 26.364 199.353 26.6414 198.785 26.6414C198.501 26.6414 198.27 26.5721 198.091 26.4334C197.912 26.2947 197.782 26.0866 197.7 25.8093C197.675 25.7525 197.637 25.7168 197.586 25.7021C197.536 25.6874 197.473 25.6895 197.397 25.7085L197.006 25.8597C196.937 25.8786 196.892 25.9122 196.869 25.9606C196.848 26.0089 196.848 26.0677 196.867 26.1371C197.012 26.5847 197.243 26.9187 197.561 27.1415C197.879 27.3621 198.287 27.4735 198.785 27.4735C199.29 27.4735 199.704 27.3621 200.026 27.1415C200.349 26.9187 200.583 26.5847 200.728 26.1371ZM196.274 28.3686C196.156 28.3665 196.076 28.3875 196.032 28.4296C195.99 28.4737 195.969 28.5535 195.971 28.6712V34.5715C195.971 34.7732 196.072 34.8741 196.274 34.8741H196.804C196.93 34.8741 197.031 34.8237 197.107 34.7228L199.82 31.0288C199.965 30.8208 200.097 30.6211 200.215 30.43C200.335 30.2388 200.438 30.0517 200.526 29.8689H200.564C200.495 30.1967 200.444 30.4993 200.411 30.7787C200.379 31.0561 200.362 31.3125 200.362 31.5457V34.5715C200.36 34.6892 200.381 34.7691 200.423 34.8132C200.467 34.8552 200.547 34.8762 200.665 34.8741H201.195C201.313 34.8762 201.393 34.8552 201.437 34.8132C201.479 34.7691 201.5 34.6892 201.498 34.5715V28.6712C201.5 28.5535 201.479 28.4737 201.437 28.4296C201.393 28.3875 201.313 28.3665 201.195 28.3686H200.665C200.602 28.3686 200.545 28.3812 200.497 28.4065C200.448 28.4317 200.406 28.4695 200.375 28.5199L197.624 32.2517C197.346 32.6173 197.119 32.9956 196.943 33.3864H196.905C196.974 33.1154 197.025 32.8443 197.058 32.5711C197.09 32.3001 197.107 32.0248 197.107 31.7474V28.6712C197.109 28.5535 197.088 28.4737 197.046 28.4296C197.002 28.3875 196.922 28.3665 196.804 28.3686H196.274ZM207.693 28.3686C207.586 28.3665 207.51 28.3875 207.462 28.4296C207.413 28.4737 207.39 28.5535 207.39 28.6712V31.0288H204.198V28.6712C204.2 28.5535 204.179 28.4737 204.137 28.4296C204.093 28.3875 204.013 28.3665 203.895 28.3686H203.365C203.248 28.3665 203.167 28.3875 203.123 28.4296C203.081 28.4737 203.06 28.5535 203.062 28.6712V34.5715C203.062 34.7732 203.163 34.8741 203.365 34.8741H203.895C204.013 34.8762 204.093 34.8552 204.137 34.8132C204.179 34.7691 204.2 34.6892 204.198 34.5715V32.0752H207.39V34.5715C207.39 34.6892 207.413 34.7691 207.462 34.8132C207.51 34.8552 207.586 34.8762 207.693 34.8741H208.223C208.331 34.8762 208.406 34.8552 208.455 34.8132C208.503 34.7691 208.526 34.6892 208.526 34.5715V28.6712C208.526 28.5535 208.503 28.4737 208.455 28.4296C208.406 28.3875 208.331 28.3665 208.223 28.3686H207.693Z" fill="#140A32"/>
<path fill-rule="evenodd" clip-rule="evenodd" d="M12.6632 2.59718C11.9502 1.04735 10.952 0.272505 9.66855 0.189493C7.84313 0.18942 6.01785 0.189456 4.3636 0.189529C3.19435 1.57323 1.73979 3.39971 0 5.66898C2.3219 5.65166 4.83925 5.49374 7.41089 5.77337C9.4743 5.99775 11.1784 6.70152 12.4065 8.07664C12.5776 5.8904 12.6061 4.0915 12.6632 2.59718Z" fill="#115B82"/>
<path fill-rule="evenodd" clip-rule="evenodd" d="M12.6632 2.59718C11.9502 1.04735 10.952 0.272505 9.66855 0.189493C7.84313 0.18942 6.01785 0.189456 4.3636 0.189529C3.19435 1.57323 1.73979 3.39971 0 5.66898C2.3219 5.65166 4.83925 5.49374 7.41089 5.77337C9.4743 5.99775 11.1784 6.70152 12.4065 8.07664C12.5776 5.8904 12.6061 4.0915 12.6632 2.59718Z" fill="#115B82"/>
<path fill-rule="evenodd" clip-rule="evenodd" d="M5.29639 6.72754V24.069H12.384V9.68471C10.5256 7.4525 8.10569 6.84402 5.29639 6.72754Z" fill="#115B82"/>
<path fill-rule="evenodd" clip-rule="evenodd" d="M5.29639 6.72754V24.069H12.384V9.68471C10.5256 7.4525 8.10569 6.84402 5.29639 6.72754Z" fill="#115B82"/>
<path fill-rule="evenodd" clip-rule="evenodd" d="M29.0643 23.8346C25.8726 24.1027 22.2811 24.4926 19.3005 23.0338C17.6167 22.2098 16.2791 21.0443 15.3035 19.5376C13.2476 16.3623 12.903 9.12665 15.0695 5.18864C15.6341 4.16235 16.4317 3.37826 17.3717 2.69399C19.7125 0.989133 22.861 0.091014 26.8172 0C22.6164 3.33025 20.8301 5.78521 20.5184 9.51188C20.3461 11.5724 20.21 15.4918 21.949 16.8951C22.394 17.254 22.909 17.5588 23.492 17.7637C26.4189 18.7924 31.1151 18.2388 33.8179 17.9624C32.0607 20.8984 30.2456 22.9135 29.0643 23.8346Z" fill="#115B82"/>
<path fill-rule="evenodd" clip-rule="evenodd" d="M29.0643 23.8346C25.8726 24.1027 22.2811 24.4926 19.3005 23.0338C17.6167 22.2098 16.2791 21.0443 15.3035 19.5376C13.2476 16.3623 12.903 9.12665 15.0695 5.18864C15.6341 4.16235 16.4317 3.37826 17.3717 2.69399C19.7125 0.989133 22.861 0.091014 26.8172 0C22.6164 3.33025 20.8301 5.78521 20.5184 9.51188C20.3461 11.5724 20.21 15.4918 21.949 16.8951C22.394 17.254 22.909 17.5588 23.492 17.7637C26.4189 18.7924 31.1151 18.2388 33.8179 17.9624C32.0607 20.8984 30.2456 22.9135 29.0643 23.8346Z" fill="#115B82"/>
<path fill-rule="evenodd" clip-rule="evenodd" d="M51.3827 0.385723C54.5744 0.117652 58.1658 -0.272309 61.1465 1.18651C62.8304 2.0106 64.1677 3.17602 65.1434 4.68274C67.1993 7.85812 67.5441 15.0937 65.3774 19.0317C64.8128 20.058 64.0153 20.8421 63.0754 21.5264C60.7347 23.2312 57.5858 24.1294 53.6298 24.2204C57.8308 20.8901 59.6168 18.4352 59.9287 14.7085C60.101 12.648 60.237 8.72858 58.4978 7.32524C58.0531 6.96633 57.5379 6.66156 56.955 6.45665C54.028 5.42798 49.3319 5.98161 46.6292 6.25795C48.3863 3.32199 50.2015 1.30683 51.3827 0.385723Z" fill="#115B82"/>
<path fill-rule="evenodd" clip-rule="evenodd" d="M51.3827 0.385723C54.5744 0.117652 58.1658 -0.272309 61.1465 1.18651C62.8304 2.0106 64.1677 3.17602 65.1434 4.68274C67.1993 7.85812 67.5441 15.0937 65.3774 19.0317C64.8128 20.058 64.0153 20.8421 63.0754 21.5264C60.7347 23.2312 57.5858 24.1294 53.6298 24.2204C57.8308 20.8901 59.6168 18.4352 59.9287 14.7085C60.101 12.648 60.237 8.72858 58.4978 7.32524C58.0531 6.96633 57.5379 6.66156 56.955 6.45665C54.028 5.42798 49.3319 5.98161 46.6292 6.25795C48.3863 3.32199 50.2015 1.30683 51.3827 0.385723Z" fill="#115B82"/>
<path fill-rule="evenodd" clip-rule="evenodd" d="M30.5334 24.0071C33.89 21.2072 35.9936 18.1079 36.4915 13.9971C36.6386 12.7838 36.6188 11.5564 36.7355 10.3393C36.9633 7.9626 37.5469 5.56819 39.3391 3.75738C41.5226 1.55108 44.7816 0.442101 49.6342 0.0859375C45.6311 3.67192 44.164 6.59982 43.5807 11.1479C43.4392 12.2531 43.4125 13.3736 43.2311 14.4725C42.2101 20.6522 37.1289 24.2753 30.5334 24.0071Z" fill="#115B82"/>
<path fill-rule="evenodd" clip-rule="evenodd" d="M30.5334 24.0071C33.89 21.2072 35.9936 18.1079 36.4915 13.9971C36.6386 12.7838 36.6188 11.5564 36.7355 10.3393C36.9633 7.9626 37.5469 5.56819 39.3391 3.75738C41.5226 1.55108 44.7816 0.442101 49.6342 0.0859375C45.6311 3.67192 44.164 6.59982 43.5807 11.1479C43.4392 12.2531 43.4125 13.3736 43.2311 14.4725C42.2101 20.6522 37.1289 24.2753 30.5334 24.0071Z" fill="#115B82"/>
<path fill-rule="evenodd" clip-rule="evenodd" d="M35.4827 7.88421C34.4215 7.02961 33.4887 6.61337 32.4772 6.35855C29.5867 5.63037 26.1923 6.05371 23.0767 6.15006C24.8122 3.08859 26.612 1.16177 28.4119 0.176946C29.9134 0.124735 31.3274 0.128206 32.6685 0.201865C34.2234 0.287252 35.4857 0.463799 36.9277 1.05892C37.8678 1.44705 38.4577 1.81673 38.6968 2.168C36.9182 3.85932 35.847 5.78614 35.4827 7.88421Z" fill="#115B82"/>
<path fill-rule="evenodd" clip-rule="evenodd" d="M35.4827 7.88421C34.4215 7.02961 33.4887 6.61337 32.4772 6.35855C29.5867 5.63037 26.1923 6.05371 23.0767 6.15006C24.8122 3.08859 26.612 1.16177 28.4119 0.176946C29.9134 0.124735 31.3274 0.128206 32.6685 0.201865C34.2234 0.287252 35.4857 0.463799 36.9277 1.05892C37.8678 1.44705 38.4577 1.81673 38.6968 2.168C36.9182 3.85932 35.847 5.78614 35.4827 7.88421Z" fill="#115B82"/>
<path fill-rule="evenodd" clip-rule="evenodd" d="M44.1703 16.3359C45.26 17.1905 46.2178 17.6068 47.2563 17.8616C50.2242 18.5898 53.7095 18.1664 56.9086 18.0701C55.1266 21.1316 53.2784 23.0584 51.4306 24.0432C49.8889 24.0954 48.4367 24.0919 47.0599 24.0183C45.4634 23.9329 44.1674 23.7564 42.6867 23.1612C41.7213 22.7731 41.1157 22.4034 40.8704 22.0522C42.6962 20.3609 43.7962 18.434 44.1703 16.3359Z" fill="#115B82"/>
<path fill-rule="evenodd" clip-rule="evenodd" d="M44.1703 16.3359C45.26 17.1905 46.2178 17.6068 47.2563 17.8616C50.2242 18.5898 53.7095 18.1664 56.9086 18.0701C55.1266 21.1316 53.2784 23.0584 51.4306 24.0432C49.8889 24.0954 48.4367 24.0919 47.0599 24.0183C45.4634 23.9329 44.1674 23.7564 42.6867 23.1612C41.7213 22.7731 41.1157 22.4034 40.8704 22.0522C42.6962 20.3609 43.7962 18.434 44.1703 16.3359Z" fill="#115B82"/>
</g>
<defs>
<clipPath id="clip0_542_1253">
<rect width="211" height="38" fill="white"/>
</clipPath>
</defs>
</svg>
