<svg width="24" height="24" viewBox="0 0 24 24" fill="none" xmlns="http://www.w3.org/2000/svg">
<path fill-rule="evenodd" clip-rule="evenodd" d="M3.75 3.75V20.25H20.25V3.75H3.75ZM2.25 3.6C2.25 2.85441 2.85442 2.25 3.6 2.25H20.4C21.1456 2.25 21.75 2.85442 21.75 3.6V20.4C21.75 21.1456 21.1456 21.75 20.4 21.75H3.6C2.85441 21.75 2.25 21.1456 2.25 20.4V3.6Z" fill="#33836E"/>
<path fill-rule="evenodd" clip-rule="evenodd" d="M12 4.75C12.4143 4.75 12.75 5.08579 12.75 5.5V6.63088C13.7987 6.80659 14.848 7.28725 15.5304 7.96967C15.8233 8.26256 15.8233 8.73744 15.5304 9.03033C15.2375 9.32322 14.7626 9.32322 14.4697 9.03033C13.9415 8.50209 12.9287 8.08398 11.9799 8.05845C11.424 8.04349 10.9874 8.16616 10.7082 8.37765C10.4603 8.5654 10.25 8.8865 10.25 9.50001C10.25 9.75463 10.3066 9.92373 10.3804 10.0472C10.4567 10.1751 10.5768 10.2962 10.7621 10.4141C11.1625 10.669 11.7281 10.8303 12.4474 11.0264C12.4662 11.0316 12.4852 11.0367 12.5043 11.0419C13.1495 11.2177 13.9307 11.4305 14.5433 11.8204C14.8737 12.0306 15.1833 12.3079 15.4077 12.684C15.6348 13.0644 15.75 13.5046 15.75 14C15.75 15.1018 15.2634 15.942 14.5063 16.4722C13.9916 16.8327 13.3778 17.0337 12.75 17.109V18.5C12.75 18.9142 12.4143 19.25 12 19.25C11.5858 19.25 11.25 18.9142 11.25 18.5V17.0647C10.1574 16.875 9.0696 16.3427 8.40004 15.45C8.15152 15.1186 8.21867 14.6485 8.55004 14.4C8.88142 14.1515 9.35152 14.2186 9.60004 14.55C10.071 15.1779 11.0252 15.6055 12.027 15.6415C12.681 15.665 13.2568 15.516 13.6459 15.2435C14.0048 14.9922 14.25 14.6092 14.25 14C14.25 13.7454 14.1934 13.5763 14.1197 13.4528C14.0434 13.3249 13.9233 13.2038 13.738 13.0859C13.3376 12.831 12.772 12.6697 12.0527 12.4736C12.0338 12.4684 12.0149 12.4633 11.9958 12.4581C11.3506 12.2823 10.5694 12.0695 9.95676 11.6796C9.6264 11.4694 9.31684 11.1921 9.09237 10.816C8.86532 10.4357 8.75004 9.99538 8.75004 9.50001C8.75004 8.48349 9.13019 7.69119 9.80253 7.18193C10.2303 6.85793 10.7349 6.6798 11.25 6.60324V5.5C11.25 5.08579 11.5858 4.75 12 4.75Z" fill="#33836E"/>
</svg>
