<svg width="24" height="24" viewBox="0 0 24 24" fill="none" xmlns="http://www.w3.org/2000/svg">
<path fill-rule="evenodd" clip-rule="evenodd" d="M4.06367 1.25L7.81459 1.25C8.12696 1.25 8.40662 1.44361 8.51659 1.73599L9.97202 5.60588C10.0202 5.73398 10.0324 5.87281 10.0073 6.00735L9.27804 9.91931C10.1744 12.0273 11.655 13.4439 14.1107 14.7146L17.9756 13.9657C18.1128 13.9391 18.2548 13.9514 18.3854 14.0012L22.2671 15.4804C22.5579 15.5912 22.7501 15.87 22.7501 16.1812L22.7501 19.7655C22.7501 21.391 21.3179 22.7101 19.6426 22.3456C16.589 21.6811 10.9317 19.9923 6.96974 16.0303C3.17461 12.2352 1.90306 6.99252 1.47503 4.15869C1.23079 2.54172 2.5276 1.25 4.06367 1.25ZM7.29537 2.75L4.06367 2.75C3.34465 2.75 2.86564 3.32183 2.9582 3.93467C3.37098 6.66748 4.5786 11.5179 8.0304 14.9697C11.6788 18.6181 16.9826 20.2317 19.9615 20.8799C20.6158 21.0222 21.2501 20.524 21.2501 19.7655L21.2501 16.698L18.0511 15.479L14.1428 16.2363C13.9801 16.2678 13.8117 16.2446 13.6636 16.1703C10.7694 14.7176 8.89045 12.9954 7.80372 10.2785C7.75093 10.1466 7.73673 10.0023 7.76278 9.86255L8.49439 5.9381L7.29537 2.75Z" fill="#2F2B43"/>
</svg>
