<svg width="40" height="40" viewBox="0 0 40 40" fill="none" xmlns="http://www.w3.org/2000/svg">
<g clip-path="url(#clip0_1222_2154)">
<path d="M28.1198 40C14.2188 39.8386 -3.19046 21.9843 0.549759 7.92686C1.30743 3.80571 8.61383 -3.30409 13.3645 1.74345C15.2534 3.74455 17.686 5.30292 17.6234 8.39732C17.6371 10.3494 16.7047 11.8588 15.2928 13.123C13.694 14.7218 13.5461 17.2648 14.9487 19.0382C16.6757 21.2238 18.7416 23.2894 20.9274 25.0171C22.7009 26.4195 25.2438 26.2717 26.8426 24.6728L27.4898 24.0259C28.5754 22.9403 30.0238 22.3423 31.5685 22.3423C34.6591 22.2777 36.227 24.717 38.2225 26.6011C43.2624 31.3946 36.1778 38.6305 32.039 39.4159C30.8316 39.8059 29.5174 40 28.1198 40ZM9.42554 1.71759C6.54423 1.60449 2.70145 5.78626 2.23662 8.2593C-0.790919 19.7836 11.2612 33.0438 21.6297 36.9673C26.6774 38.7724 31.3066 39.028 35.1181 35.8226C37.6588 33.6474 39.6199 30.4226 37.0074 27.8163L34.432 25.2411C32.9334 23.6776 30.2032 23.678 28.7049 25.2412L28.0577 25.8882C25.8424 28.1035 22.3187 28.3085 19.8613 26.365C18.7167 25.4596 17.6029 24.4671 16.5508 23.415C15.4982 22.3624 14.5057 21.2485 13.6008 20.1043C11.6573 17.6471 11.8623 14.1235 14.0776 11.908L14.7247 11.2609C16.2882 9.76362 16.2877 7.03125 14.7247 5.53381L12.1493 2.95845C11.3201 2.12915 10.4207 1.71759 9.42554 1.71759Z" fill="#33836E"/>
<path d="M32.1925 15.9196C31.7961 15.9196 31.4397 15.6437 31.3532 15.2404C31.0055 13.6141 30.1942 12.1234 29.0175 10.9482C27.8256 9.75421 26.309 8.93689 24.6563 8.59785C24.1915 8.50209 23.8924 8.04773 23.988 7.58297C24.0839 7.11822 24.5382 6.81906 25.0029 6.91482C26.9899 7.32404 28.7983 8.29862 30.2326 9.73303C31.6437 11.1422 32.6164 12.9299 33.0334 14.8801C33.1329 15.344 32.8375 15.8008 32.3735 15.9003C32.3128 15.9133 32.2521 15.9196 32.1925 15.9196Z" fill="#33836E"/>
<path d="M37.0465 20.7468C36.9904 20.7468 36.9336 20.7414 36.8765 20.7299C36.4113 20.6364 36.1098 20.1836 36.2033 19.7183C37.0982 15.2612 35.7133 10.6813 32.4989 7.46665C29.2785 4.24626 24.6909 2.86286 20.227 3.76635C19.7618 3.86094 19.3086 3.55975 19.2145 3.09461C19.1204 2.62954 19.4211 2.17619 19.8862 2.08207C24.9162 1.06398 30.0853 2.62275 33.714 6.2515C37.3361 9.87369 38.8965 15.0344 37.8881 20.0565C37.8061 20.4648 37.4474 20.7468 37.0465 20.7468Z" fill="#33836E"/>
</g>
<defs>
<clipPath id="clip0_1222_2154">
<rect width="40" height="40" fill="white"/>
</clipPath>
</defs>
</svg>
