<svg width="24" height="24" viewBox="0 0 24 24" fill="none" xmlns="http://www.w3.org/2000/svg">
<path fill-rule="evenodd" clip-rule="evenodd" d="M3.27053 11.4345C8.23172 9.27295 11.54 7.84796 13.1952 7.15947C17.9214 5.19369 18.9035 4.85222 19.5436 4.84094C19.6843 4.83846 19.9991 4.87335 20.203 5.0388C20.3752 5.1785 20.4226 5.36722 20.4452 5.49968C20.4679 5.63213 20.4961 5.93387 20.4737 6.16963C20.2176 8.86063 19.1094 15.391 18.5456 18.4049C18.307 19.6802 17.8373 20.1079 17.3825 20.1497C16.3943 20.2406 15.6438 19.4966 14.6866 18.8691C13.1888 17.8873 12.3426 17.2761 10.8887 16.318C9.20843 15.2107 10.2977 14.6021 11.2552 13.6076C11.5058 13.3473 15.8602 9.38663 15.9445 9.02733C15.9551 8.9824 15.9648 8.8149 15.8653 8.72645C15.7658 8.63801 15.619 8.66825 15.513 8.69231C15.3628 8.7264 12.9699 10.308 8.33455 13.437C7.65536 13.9034 7.04017 14.1306 6.48898 14.1187C5.88133 14.1056 4.71248 13.7751 3.84355 13.4927C2.77777 13.1462 1.93072 12.9631 2.00448 12.3747C2.0429 12.0682 2.46491 11.7548 3.27053 11.4345Z" fill="url(#paint0_linear_1222_1916)"/>
<defs>
<linearGradient id="paint0_linear_1222_1916" x1="11.241" y1="4.84082" x2="11.241" y2="20.0437" gradientUnits="userSpaceOnUse">
<stop stop-color="#2AABEE"/>
<stop offset="1" stop-color="#229ED9"/>
</linearGradient>
</defs>
</svg>
